<mxfile host="app.diagrams.net" modified="2021-01-15T13:06:02.208Z" agent="5.0 (Windows NT 10.0; Win64; x64) AppleWebKit/537.36 (KHTML, like Gecko) Chrome/87.0.4280.141 Safari/537.36" etag="F6ucs1A-WrLazvouUEv-" version="14.2.2" type="github" pages="9">
  <diagram id="C5RBs43oDa-KdzZeNtuy" name="Page-1">
    <mxGraphModel dx="1673" dy="934" grid="1" gridSize="10" guides="1" tooltips="1" connect="1" arrows="1" fold="1" page="1" pageScale="1" pageWidth="827" pageHeight="1169" math="0" shadow="0">
      <root>
        <mxCell id="WIyWlLk6GJQsqaUBKTNV-0" />
        <mxCell id="WIyWlLk6GJQsqaUBKTNV-1" parent="WIyWlLk6GJQsqaUBKTNV-0" />
        <mxCell id="yX1qsBw8RPop-Fe7O3SN-8" value="" style="edgeStyle=orthogonalEdgeStyle;rounded=0;orthogonalLoop=1;jettySize=auto;html=1;" edge="1" parent="WIyWlLk6GJQsqaUBKTNV-1" source="yX1qsBw8RPop-Fe7O3SN-1" target="yX1qsBw8RPop-Fe7O3SN-7">
          <mxGeometry relative="1" as="geometry" />
        </mxCell>
        <mxCell id="yX1qsBw8RPop-Fe7O3SN-1" value="Start" style="ellipse;whiteSpace=wrap;html=1;" vertex="1" parent="WIyWlLk6GJQsqaUBKTNV-1">
          <mxGeometry x="354" y="50" width="120" height="40" as="geometry" />
        </mxCell>
        <mxCell id="yX1qsBw8RPop-Fe7O3SN-6" value="" style="edgeStyle=orthogonalEdgeStyle;rounded=0;orthogonalLoop=1;jettySize=auto;html=1;" edge="1" parent="WIyWlLk6GJQsqaUBKTNV-1" source="yX1qsBw8RPop-Fe7O3SN-3" target="yX1qsBw8RPop-Fe7O3SN-5">
          <mxGeometry relative="1" as="geometry" />
        </mxCell>
        <mxCell id="yX1qsBw8RPop-Fe7O3SN-3" value="Declare char username[100], password[100] ,holdpassword[100], name[20] , phonenum[20] , ansq1[20] ,ansq2[20] , ansq3[20]&amp;nbsp;" style="whiteSpace=wrap;html=1;" vertex="1" parent="WIyWlLk6GJQsqaUBKTNV-1">
          <mxGeometry x="242.5" y="250" width="343" height="70" as="geometry" />
        </mxCell>
        <mxCell id="yX1qsBw8RPop-Fe7O3SN-11" value="" style="edgeStyle=orthogonalEdgeStyle;rounded=0;orthogonalLoop=1;jettySize=auto;html=1;" edge="1" parent="WIyWlLk6GJQsqaUBKTNV-1" source="yX1qsBw8RPop-Fe7O3SN-5" target="yX1qsBw8RPop-Fe7O3SN-10">
          <mxGeometry relative="1" as="geometry" />
        </mxCell>
        <mxCell id="yX1qsBw8RPop-Fe7O3SN-5" value="Set&amp;nbsp;question1[100] = &quot;What is my first car registration number ?&quot;&lt;br&gt;Set&amp;nbsp;question2[100] = &quot;What is my first motorcycle registration number ?&quot;&lt;br&gt;Set&amp;nbsp;question3[100] = &quot;What is the name of my mathematic teacher in highschool ?&quot;;&amp;nbsp;" style="whiteSpace=wrap;html=1;" vertex="1" parent="WIyWlLk6GJQsqaUBKTNV-1">
          <mxGeometry x="171" y="350" width="485.5" height="60" as="geometry" />
        </mxCell>
        <mxCell id="yX1qsBw8RPop-Fe7O3SN-9" value="" style="edgeStyle=orthogonalEdgeStyle;rounded=0;orthogonalLoop=1;jettySize=auto;html=1;" edge="1" parent="WIyWlLk6GJQsqaUBKTNV-1" source="yX1qsBw8RPop-Fe7O3SN-7" target="yX1qsBw8RPop-Fe7O3SN-3">
          <mxGeometry relative="1" as="geometry" />
        </mxCell>
        <mxCell id="yX1qsBw8RPop-Fe7O3SN-7" value="Declare function&lt;br&gt;&lt;span&gt;void login();&lt;/span&gt;&lt;div&gt;void signup();&lt;/div&gt;&lt;div&gt;void reset();&lt;/div&gt;&lt;div&gt;void loggedin();&lt;/div&gt;&lt;div&gt;void setpassword();&lt;/div&gt;" style="whiteSpace=wrap;html=1;align=left;" vertex="1" parent="WIyWlLk6GJQsqaUBKTNV-1">
          <mxGeometry x="333" y="120" width="162" height="100" as="geometry" />
        </mxCell>
        <mxCell id="yX1qsBw8RPop-Fe7O3SN-10" value="Main Module" style="ellipse;whiteSpace=wrap;html=1;" vertex="1" parent="WIyWlLk6GJQsqaUBKTNV-1">
          <mxGeometry x="354" y="450" width="120" height="40" as="geometry" />
        </mxCell>
      </root>
    </mxGraphModel>
  </diagram>
  <diagram id="oWTJoDfDgCDyjWpa9GN-" name="Page-2">
    <mxGraphModel dx="1776" dy="996" grid="1" gridSize="10" guides="1" tooltips="1" connect="1" arrows="1" fold="1" page="1" pageScale="1" pageWidth="850" pageHeight="1100" math="0" shadow="0">
      <root>
        <mxCell id="vX2fTaNMJbN0gBINvXl3-0" />
        <mxCell id="vX2fTaNMJbN0gBINvXl3-1" parent="vX2fTaNMJbN0gBINvXl3-0" />
        <mxCell id="UTsJxv3yx9BI-yTwPcfX-0" value="" style="edgeStyle=orthogonalEdgeStyle;rounded=0;orthogonalLoop=1;jettySize=auto;html=1;" edge="1" parent="vX2fTaNMJbN0gBINvXl3-1" source="UTsJxv3yx9BI-yTwPcfX-1" target="UTsJxv3yx9BI-yTwPcfX-7">
          <mxGeometry relative="1" as="geometry" />
        </mxCell>
        <mxCell id="UTsJxv3yx9BI-yTwPcfX-1" value="int main()" style="ellipse;whiteSpace=wrap;html=1;" vertex="1" parent="vX2fTaNMJbN0gBINvXl3-1">
          <mxGeometry x="354" y="50" width="120" height="40" as="geometry" />
        </mxCell>
        <mxCell id="UTsJxv3yx9BI-yTwPcfX-10" value="" style="edgeStyle=orthogonalEdgeStyle;rounded=0;orthogonalLoop=1;jettySize=auto;html=1;" edge="1" parent="vX2fTaNMJbN0gBINvXl3-1" source="UTsJxv3yx9BI-yTwPcfX-7" target="UTsJxv3yx9BI-yTwPcfX-9">
          <mxGeometry relative="1" as="geometry" />
        </mxCell>
        <mxCell id="UTsJxv3yx9BI-yTwPcfX-7" value="&lt;div&gt;&lt;span&gt;Declare int choice&lt;/span&gt;&lt;/div&gt;" style="whiteSpace=wrap;html=1;align=center;" vertex="1" parent="vX2fTaNMJbN0gBINvXl3-1">
          <mxGeometry x="333" y="120" width="162" height="30" as="geometry" />
        </mxCell>
        <mxCell id="UTsJxv3yx9BI-yTwPcfX-12" value="" style="edgeStyle=orthogonalEdgeStyle;rounded=0;orthogonalLoop=1;jettySize=auto;html=1;" edge="1" parent="vX2fTaNMJbN0gBINvXl3-1" source="UTsJxv3yx9BI-yTwPcfX-9" target="UTsJxv3yx9BI-yTwPcfX-11">
          <mxGeometry relative="1" as="geometry" />
        </mxCell>
        <mxCell id="UTsJxv3yx9BI-yTwPcfX-9" value="Display&amp;nbsp;&lt;span&gt;&quot;=========================================== &quot;&lt;/span&gt;&lt;div&gt;&amp;nbsp; Display &quot;Welcome to SECUREBOX.&quot;&amp;nbsp;&lt;/div&gt;&lt;div&gt;&amp;nbsp; Display &quot;=========================================== &quot;&lt;/div&gt;&lt;div&gt;&amp;nbsp; Display &quot;Thank you for purchasing our product \nPlease register your account before you can proceed.&quot;&lt;/div&gt;&lt;div&gt;&lt;br&gt;&lt;/div&gt;&lt;div&gt;&amp;nbsp; Display &quot;1. Register &quot;&lt;/div&gt;&lt;div&gt;&amp;nbsp; Display &quot;2. Exit &quot;&lt;/div&gt;&lt;div&gt;&amp;nbsp;&amp;nbsp;&lt;/div&gt;&lt;div&gt;&amp;nbsp; Display &quot; Please Enter the option [1/2]: &quot;&lt;/div&gt;&lt;div&gt;Input choice&lt;/div&gt;" style="shape=parallelogram;perimeter=parallelogramPerimeter;whiteSpace=wrap;html=1;fixedSize=1;align=center;" vertex="1" parent="vX2fTaNMJbN0gBINvXl3-1">
          <mxGeometry x="145.63" y="180" width="536.75" height="180" as="geometry" />
        </mxCell>
        <mxCell id="UTsJxv3yx9BI-yTwPcfX-14" value="" style="edgeStyle=orthogonalEdgeStyle;rounded=0;orthogonalLoop=1;jettySize=auto;html=1;" edge="1" parent="vX2fTaNMJbN0gBINvXl3-1" source="UTsJxv3yx9BI-yTwPcfX-11" target="UTsJxv3yx9BI-yTwPcfX-13">
          <mxGeometry relative="1" as="geometry" />
        </mxCell>
        <mxCell id="UTsJxv3yx9BI-yTwPcfX-16" value="" style="edgeStyle=orthogonalEdgeStyle;rounded=0;orthogonalLoop=1;jettySize=auto;html=1;" edge="1" parent="vX2fTaNMJbN0gBINvXl3-1" source="UTsJxv3yx9BI-yTwPcfX-11" target="UTsJxv3yx9BI-yTwPcfX-15">
          <mxGeometry relative="1" as="geometry" />
        </mxCell>
        <mxCell id="UTsJxv3yx9BI-yTwPcfX-11" value="if(choice== 1)" style="rhombus;whiteSpace=wrap;html=1;" vertex="1" parent="vX2fTaNMJbN0gBINvXl3-1">
          <mxGeometry x="349.51" y="390" width="128.99" height="110" as="geometry" />
        </mxCell>
        <mxCell id="UTsJxv3yx9BI-yTwPcfX-13" value="signup()" style="shape=process;whiteSpace=wrap;html=1;backgroundOutline=1;" vertex="1" parent="vX2fTaNMJbN0gBINvXl3-1">
          <mxGeometry x="562.995" y="415" width="120" height="60" as="geometry" />
        </mxCell>
        <mxCell id="UTsJxv3yx9BI-yTwPcfX-18" value="" style="edgeStyle=orthogonalEdgeStyle;rounded=0;orthogonalLoop=1;jettySize=auto;html=1;" edge="1" parent="vX2fTaNMJbN0gBINvXl3-1" source="UTsJxv3yx9BI-yTwPcfX-15">
          <mxGeometry relative="1" as="geometry">
            <mxPoint x="562.99" y="605" as="targetPoint" />
          </mxGeometry>
        </mxCell>
        <mxCell id="UTsJxv3yx9BI-yTwPcfX-22" value="" style="edgeStyle=orthogonalEdgeStyle;rounded=0;orthogonalLoop=1;jettySize=auto;html=1;" edge="1" parent="vX2fTaNMJbN0gBINvXl3-1" source="UTsJxv3yx9BI-yTwPcfX-15" target="UTsJxv3yx9BI-yTwPcfX-21">
          <mxGeometry relative="1" as="geometry" />
        </mxCell>
        <mxCell id="UTsJxv3yx9BI-yTwPcfX-15" value="else if(choice== 2)" style="rhombus;whiteSpace=wrap;html=1;" vertex="1" parent="vX2fTaNMJbN0gBINvXl3-1">
          <mxGeometry x="348.5" y="550" width="128.99" height="110" as="geometry" />
        </mxCell>
        <mxCell id="UTsJxv3yx9BI-yTwPcfX-24" value="" style="edgeStyle=orthogonalEdgeStyle;rounded=0;orthogonalLoop=1;jettySize=auto;html=1;entryX=1;entryY=0.5;entryDx=0;entryDy=0;" edge="1" parent="vX2fTaNMJbN0gBINvXl3-1" source="UTsJxv3yx9BI-yTwPcfX-21" target="UTsJxv3yx9BI-yTwPcfX-1">
          <mxGeometry relative="1" as="geometry">
            <mxPoint x="562.3800000000001" y="750" as="targetPoint" />
            <Array as="points">
              <mxPoint x="790" y="750" />
              <mxPoint x="790" y="70" />
            </Array>
          </mxGeometry>
        </mxCell>
        <mxCell id="UTsJxv3yx9BI-yTwPcfX-21" value="Display &quot;Input is&amp;nbsp; invalid , Please try again&quot;" style="shape=parallelogram;perimeter=parallelogramPerimeter;whiteSpace=wrap;html=1;fixedSize=1;" vertex="1" parent="vX2fTaNMJbN0gBINvXl3-1">
          <mxGeometry x="326" y="720" width="174" height="60" as="geometry" />
        </mxCell>
        <mxCell id="UTsJxv3yx9BI-yTwPcfX-27" value="TRUE" style="text;html=1;strokeColor=none;fillColor=none;align=center;verticalAlign=middle;whiteSpace=wrap;rounded=0;" vertex="1" parent="vX2fTaNMJbN0gBINvXl3-1">
          <mxGeometry x="490" y="575" width="40" height="20" as="geometry" />
        </mxCell>
        <mxCell id="UTsJxv3yx9BI-yTwPcfX-31" value="FALSE" style="text;html=1;strokeColor=none;fillColor=none;align=center;verticalAlign=middle;whiteSpace=wrap;rounded=0;" vertex="1" parent="vX2fTaNMJbN0gBINvXl3-1">
          <mxGeometry x="420" y="510" width="40" height="20" as="geometry" />
        </mxCell>
        <mxCell id="UTsJxv3yx9BI-yTwPcfX-33" value="TRUE" style="text;html=1;strokeColor=none;fillColor=none;align=center;verticalAlign=middle;whiteSpace=wrap;rounded=0;" vertex="1" parent="vX2fTaNMJbN0gBINvXl3-1">
          <mxGeometry x="490" y="415" width="40" height="20" as="geometry" />
        </mxCell>
        <mxCell id="UTsJxv3yx9BI-yTwPcfX-34" value="FALSE" style="text;html=1;strokeColor=none;fillColor=none;align=center;verticalAlign=middle;whiteSpace=wrap;rounded=0;" vertex="1" parent="vX2fTaNMJbN0gBINvXl3-1">
          <mxGeometry x="425" y="680" width="40" height="20" as="geometry" />
        </mxCell>
        <mxCell id="ROlUoskl_bR1g0cgRXhz-0" value="return 0" style="ellipse;whiteSpace=wrap;html=1;align=center;" vertex="1" parent="vX2fTaNMJbN0gBINvXl3-1">
          <mxGeometry x="562.99" y="587.5" width="120" height="35" as="geometry" />
        </mxCell>
      </root>
    </mxGraphModel>
  </diagram>
  <diagram id="4VUvEVhkeH7h-iC1MWQ2" name="Page-3">
    <mxGraphModel dx="1462" dy="820" grid="1" gridSize="10" guides="1" tooltips="1" connect="1" arrows="1" fold="1" page="1" pageScale="1" pageWidth="850" pageHeight="1100" math="0" shadow="0">
      <root>
        <mxCell id="EB0_tab6QPXKH0anPQTZ-0" />
        <mxCell id="EB0_tab6QPXKH0anPQTZ-1" parent="EB0_tab6QPXKH0anPQTZ-0" />
        <mxCell id="Wfgr46Q09Ok27RVEe2A5-0" value="" style="edgeStyle=orthogonalEdgeStyle;rounded=0;orthogonalLoop=1;jettySize=auto;html=1;" edge="1" parent="EB0_tab6QPXKH0anPQTZ-1" source="Wfgr46Q09Ok27RVEe2A5-1" target="Wfgr46Q09Ok27RVEe2A5-3">
          <mxGeometry relative="1" as="geometry" />
        </mxCell>
        <mxCell id="Wfgr46Q09Ok27RVEe2A5-1" value="void menu()" style="ellipse;whiteSpace=wrap;html=1;" vertex="1" parent="EB0_tab6QPXKH0anPQTZ-1">
          <mxGeometry x="354" y="50" width="120" height="40" as="geometry" />
        </mxCell>
        <mxCell id="Wfgr46Q09Ok27RVEe2A5-2" value="" style="edgeStyle=orthogonalEdgeStyle;rounded=0;orthogonalLoop=1;jettySize=auto;html=1;" edge="1" parent="EB0_tab6QPXKH0anPQTZ-1" source="Wfgr46Q09Ok27RVEe2A5-3" target="Wfgr46Q09Ok27RVEe2A5-5">
          <mxGeometry relative="1" as="geometry" />
        </mxCell>
        <mxCell id="Wfgr46Q09Ok27RVEe2A5-3" value="&lt;div&gt;&lt;span&gt;Declare int choice&lt;/span&gt;&lt;/div&gt;" style="whiteSpace=wrap;html=1;align=center;" vertex="1" parent="EB0_tab6QPXKH0anPQTZ-1">
          <mxGeometry x="333" y="120" width="162" height="30" as="geometry" />
        </mxCell>
        <mxCell id="Wfgr46Q09Ok27RVEe2A5-4" value="" style="edgeStyle=orthogonalEdgeStyle;rounded=0;orthogonalLoop=1;jettySize=auto;html=1;" edge="1" parent="EB0_tab6QPXKH0anPQTZ-1" source="Wfgr46Q09Ok27RVEe2A5-5" target="Wfgr46Q09Ok27RVEe2A5-8">
          <mxGeometry relative="1" as="geometry" />
        </mxCell>
        <mxCell id="Wfgr46Q09Ok27RVEe2A5-5" value="Display&amp;nbsp;&lt;span&gt;&quot;=========================================== &quot;&lt;/span&gt;&lt;div&gt;&amp;nbsp; Display &quot;[SECUREBOX] Main Menu.&quot;&amp;nbsp;&lt;/div&gt;&lt;div&gt;&amp;nbsp; Display &quot;=========================================== &quot;&lt;/div&gt;&lt;div&gt;&amp;nbsp; Display &quot;You have succesfully sign up !&quot;&lt;/div&gt;&lt;div&gt;&lt;br&gt;&lt;/div&gt;&lt;div&gt;&amp;nbsp; Display &quot;1. Login&quot;&lt;/div&gt;&lt;div&gt;&amp;nbsp; Display &quot;2. Reset Password &quot;&lt;/div&gt;&lt;div&gt;&amp;nbsp;&amp;nbsp;&lt;/div&gt;&lt;div&gt;&amp;nbsp; Display &quot; Please Enter the option [1/2]: &quot;&lt;/div&gt;&lt;div&gt;Input choice&lt;/div&gt;" style="shape=parallelogram;perimeter=parallelogramPerimeter;whiteSpace=wrap;html=1;fixedSize=1;align=center;" vertex="1" parent="EB0_tab6QPXKH0anPQTZ-1">
          <mxGeometry x="145.63" y="180" width="536.75" height="180" as="geometry" />
        </mxCell>
        <mxCell id="Wfgr46Q09Ok27RVEe2A5-6" value="" style="edgeStyle=orthogonalEdgeStyle;rounded=0;orthogonalLoop=1;jettySize=auto;html=1;" edge="1" parent="EB0_tab6QPXKH0anPQTZ-1" source="Wfgr46Q09Ok27RVEe2A5-8" target="Wfgr46Q09Ok27RVEe2A5-9">
          <mxGeometry relative="1" as="geometry" />
        </mxCell>
        <mxCell id="Wfgr46Q09Ok27RVEe2A5-7" value="" style="edgeStyle=orthogonalEdgeStyle;rounded=0;orthogonalLoop=1;jettySize=auto;html=1;" edge="1" parent="EB0_tab6QPXKH0anPQTZ-1" source="Wfgr46Q09Ok27RVEe2A5-8" target="Wfgr46Q09Ok27RVEe2A5-12">
          <mxGeometry relative="1" as="geometry" />
        </mxCell>
        <mxCell id="Wfgr46Q09Ok27RVEe2A5-8" value="if(choice== 1)" style="rhombus;whiteSpace=wrap;html=1;" vertex="1" parent="EB0_tab6QPXKH0anPQTZ-1">
          <mxGeometry x="349.51" y="390" width="128.99" height="110" as="geometry" />
        </mxCell>
        <mxCell id="Wfgr46Q09Ok27RVEe2A5-9" value="login()" style="shape=process;whiteSpace=wrap;html=1;backgroundOutline=1;" vertex="1" parent="EB0_tab6QPXKH0anPQTZ-1">
          <mxGeometry x="562.995" y="415" width="120" height="60" as="geometry" />
        </mxCell>
        <mxCell id="Wfgr46Q09Ok27RVEe2A5-10" value="" style="edgeStyle=orthogonalEdgeStyle;rounded=0;orthogonalLoop=1;jettySize=auto;html=1;" edge="1" parent="EB0_tab6QPXKH0anPQTZ-1" source="Wfgr46Q09Ok27RVEe2A5-12">
          <mxGeometry relative="1" as="geometry">
            <mxPoint x="562.9899999999998" y="605" as="targetPoint" />
          </mxGeometry>
        </mxCell>
        <mxCell id="Wfgr46Q09Ok27RVEe2A5-11" value="" style="edgeStyle=orthogonalEdgeStyle;rounded=0;orthogonalLoop=1;jettySize=auto;html=1;" edge="1" parent="EB0_tab6QPXKH0anPQTZ-1" source="Wfgr46Q09Ok27RVEe2A5-12" target="Wfgr46Q09Ok27RVEe2A5-15">
          <mxGeometry relative="1" as="geometry" />
        </mxCell>
        <mxCell id="Wfgr46Q09Ok27RVEe2A5-12" value="else if(choice== 2)" style="rhombus;whiteSpace=wrap;html=1;" vertex="1" parent="EB0_tab6QPXKH0anPQTZ-1">
          <mxGeometry x="348.5" y="550" width="128.99" height="110" as="geometry" />
        </mxCell>
        <mxCell id="Wfgr46Q09Ok27RVEe2A5-14" value="" style="edgeStyle=orthogonalEdgeStyle;rounded=0;orthogonalLoop=1;jettySize=auto;html=1;entryX=1;entryY=0.5;entryDx=0;entryDy=0;" edge="1" parent="EB0_tab6QPXKH0anPQTZ-1" source="Wfgr46Q09Ok27RVEe2A5-15" target="Wfgr46Q09Ok27RVEe2A5-1">
          <mxGeometry relative="1" as="geometry">
            <mxPoint x="562.3800000000001" y="750" as="targetPoint" />
            <Array as="points">
              <mxPoint x="790" y="750" />
              <mxPoint x="790" y="70" />
            </Array>
          </mxGeometry>
        </mxCell>
        <mxCell id="Wfgr46Q09Ok27RVEe2A5-15" value="Display &quot;Input is&amp;nbsp; invalid , Please try again&quot;" style="shape=parallelogram;perimeter=parallelogramPerimeter;whiteSpace=wrap;html=1;fixedSize=1;" vertex="1" parent="EB0_tab6QPXKH0anPQTZ-1">
          <mxGeometry x="326" y="720" width="174" height="60" as="geometry" />
        </mxCell>
        <mxCell id="Wfgr46Q09Ok27RVEe2A5-16" value="TRUE" style="text;html=1;strokeColor=none;fillColor=none;align=center;verticalAlign=middle;whiteSpace=wrap;rounded=0;" vertex="1" parent="EB0_tab6QPXKH0anPQTZ-1">
          <mxGeometry x="490" y="575" width="40" height="20" as="geometry" />
        </mxCell>
        <mxCell id="Wfgr46Q09Ok27RVEe2A5-17" value="FALSE" style="text;html=1;strokeColor=none;fillColor=none;align=center;verticalAlign=middle;whiteSpace=wrap;rounded=0;" vertex="1" parent="EB0_tab6QPXKH0anPQTZ-1">
          <mxGeometry x="420" y="510" width="40" height="20" as="geometry" />
        </mxCell>
        <mxCell id="Wfgr46Q09Ok27RVEe2A5-18" value="TRUE" style="text;html=1;strokeColor=none;fillColor=none;align=center;verticalAlign=middle;whiteSpace=wrap;rounded=0;" vertex="1" parent="EB0_tab6QPXKH0anPQTZ-1">
          <mxGeometry x="490" y="415" width="40" height="20" as="geometry" />
        </mxCell>
        <mxCell id="Wfgr46Q09Ok27RVEe2A5-19" value="FALSE" style="text;html=1;strokeColor=none;fillColor=none;align=center;verticalAlign=middle;whiteSpace=wrap;rounded=0;" vertex="1" parent="EB0_tab6QPXKH0anPQTZ-1">
          <mxGeometry x="425" y="680" width="40" height="20" as="geometry" />
        </mxCell>
        <mxCell id="0fcp279NnLht1x5Wv5l_-0" value="reset()" style="shape=process;whiteSpace=wrap;html=1;backgroundOutline=1;" vertex="1" parent="EB0_tab6QPXKH0anPQTZ-1">
          <mxGeometry x="562.995" y="575" width="120" height="60" as="geometry" />
        </mxCell>
      </root>
    </mxGraphModel>
  </diagram>
  <diagram id="Cz5NtHG4De6g_1EFofs7" name="Page-4">
    <mxGraphModel dx="1243" dy="697" grid="1" gridSize="10" guides="1" tooltips="1" connect="1" arrows="1" fold="1" page="1" pageScale="1" pageWidth="850" pageHeight="1100" math="0" shadow="0">
      <root>
        <mxCell id="cTdk-ve982rPjJKOEt5p-0" />
        <mxCell id="cTdk-ve982rPjJKOEt5p-1" parent="cTdk-ve982rPjJKOEt5p-0" />
        <mxCell id="MUvSTqA5xBFWLevcXFdx-0" value="" style="edgeStyle=orthogonalEdgeStyle;rounded=0;orthogonalLoop=1;jettySize=auto;html=1;" edge="1" parent="cTdk-ve982rPjJKOEt5p-1" source="MUvSTqA5xBFWLevcXFdx-1" target="MUvSTqA5xBFWLevcXFdx-3">
          <mxGeometry relative="1" as="geometry" />
        </mxCell>
        <mxCell id="MUvSTqA5xBFWLevcXFdx-1" value="void login()" style="ellipse;whiteSpace=wrap;html=1;" vertex="1" parent="cTdk-ve982rPjJKOEt5p-1">
          <mxGeometry x="354" y="50" width="120" height="40" as="geometry" />
        </mxCell>
        <mxCell id="MUvSTqA5xBFWLevcXFdx-2" value="" style="edgeStyle=orthogonalEdgeStyle;rounded=0;orthogonalLoop=1;jettySize=auto;html=1;" edge="1" parent="cTdk-ve982rPjJKOEt5p-1" source="MUvSTqA5xBFWLevcXFdx-3" target="MUvSTqA5xBFWLevcXFdx-5">
          <mxGeometry relative="1" as="geometry" />
        </mxCell>
        <mxCell id="MUvSTqA5xBFWLevcXFdx-3" value="&lt;div&gt;&lt;span&gt;Declare&amp;nbsp;&lt;/span&gt;&lt;span&gt;char holdusername[100]&lt;/span&gt;&lt;/div&gt;&lt;div&gt;&amp;nbsp; char holdpassword[100]&lt;/div&gt;" style="whiteSpace=wrap;html=1;align=center;" vertex="1" parent="cTdk-ve982rPjJKOEt5p-1">
          <mxGeometry x="305.51" y="110" width="217" height="60" as="geometry" />
        </mxCell>
        <mxCell id="MUvSTqA5xBFWLevcXFdx-4" value="" style="edgeStyle=orthogonalEdgeStyle;rounded=0;orthogonalLoop=1;jettySize=auto;html=1;" edge="1" parent="cTdk-ve982rPjJKOEt5p-1" source="MUvSTqA5xBFWLevcXFdx-5" target="MUvSTqA5xBFWLevcXFdx-8">
          <mxGeometry relative="1" as="geometry" />
        </mxCell>
        <mxCell id="MUvSTqA5xBFWLevcXFdx-5" value="Display&amp;nbsp;&lt;span&gt;&quot;=========================================== &quot;&lt;/span&gt;&lt;div&gt;&amp;nbsp; Display &quot;[SECUREBOX] Login&quot;&amp;nbsp;&lt;/div&gt;&lt;div&gt;&amp;nbsp; Display &quot;=========================================== &quot;&lt;/div&gt;&lt;div&gt;&amp;nbsp; Display &quot;Enter your username :&amp;nbsp;&quot;&lt;/div&gt;&lt;div&gt;Input holdusername&amp;nbsp;&lt;/div&gt;&lt;div&gt;&amp;nbsp; Display &quot;Enter your password :&amp;nbsp;&quot;&lt;/div&gt;&lt;div&gt;&lt;span&gt;Input holdpassword&amp;nbsp;&amp;nbsp;&lt;/span&gt;&lt;br&gt;&lt;/div&gt;&lt;div&gt;&lt;br&gt;&lt;/div&gt;" style="shape=parallelogram;perimeter=parallelogramPerimeter;whiteSpace=wrap;html=1;fixedSize=1;align=center;" vertex="1" parent="cTdk-ve982rPjJKOEt5p-1">
          <mxGeometry x="146.24" y="210" width="536.75" height="110" as="geometry" />
        </mxCell>
        <mxCell id="MUvSTqA5xBFWLevcXFdx-23" value="" style="edgeStyle=orthogonalEdgeStyle;rounded=0;orthogonalLoop=1;jettySize=auto;html=1;" edge="1" parent="cTdk-ve982rPjJKOEt5p-1" source="MUvSTqA5xBFWLevcXFdx-8" target="MUvSTqA5xBFWLevcXFdx-22">
          <mxGeometry relative="1" as="geometry" />
        </mxCell>
        <mxCell id="MUvSTqA5xBFWLevcXFdx-33" value="" style="edgeStyle=orthogonalEdgeStyle;rounded=0;orthogonalLoop=1;jettySize=auto;html=1;" edge="1" parent="cTdk-ve982rPjJKOEt5p-1" source="MUvSTqA5xBFWLevcXFdx-8" target="MUvSTqA5xBFWLevcXFdx-32">
          <mxGeometry relative="1" as="geometry" />
        </mxCell>
        <mxCell id="MUvSTqA5xBFWLevcXFdx-8" value="if(strcmp(holdusername,username) != 0||&lt;br&gt;strcmp(holdpassword,password) != 0)" style="rhombus;whiteSpace=wrap;html=1;" vertex="1" parent="cTdk-ve982rPjJKOEt5p-1">
          <mxGeometry x="70" y="390" width="358.5" height="110" as="geometry" />
        </mxCell>
        <mxCell id="MUvSTqA5xBFWLevcXFdx-9" value="menu()" style="shape=process;whiteSpace=wrap;html=1;backgroundOutline=1;" vertex="1" parent="cTdk-ve982rPjJKOEt5p-1">
          <mxGeometry x="630.01" y="427.5" width="120" height="35" as="geometry" />
        </mxCell>
        <mxCell id="MUvSTqA5xBFWLevcXFdx-16" value="FALSE" style="text;html=1;strokeColor=none;fillColor=none;align=center;verticalAlign=middle;whiteSpace=wrap;rounded=0;" vertex="1" parent="cTdk-ve982rPjJKOEt5p-1">
          <mxGeometry x="250" y="510" width="40" height="20" as="geometry" />
        </mxCell>
        <mxCell id="MUvSTqA5xBFWLevcXFdx-24" value="" style="edgeStyle=orthogonalEdgeStyle;rounded=0;orthogonalLoop=1;jettySize=auto;html=1;" edge="1" parent="cTdk-ve982rPjJKOEt5p-1" source="MUvSTqA5xBFWLevcXFdx-22" target="MUvSTqA5xBFWLevcXFdx-9">
          <mxGeometry relative="1" as="geometry" />
        </mxCell>
        <mxCell id="MUvSTqA5xBFWLevcXFdx-22" value="Display &quot;Your usename&lt;br&gt;&amp;nbsp;or password is incorrect&quot;" style="shape=parallelogram;perimeter=parallelogramPerimeter;whiteSpace=wrap;html=1;fixedSize=1;" vertex="1" parent="cTdk-ve982rPjJKOEt5p-1">
          <mxGeometry x="450" y="415" width="160" height="60" as="geometry" />
        </mxCell>
        <mxCell id="MUvSTqA5xBFWLevcXFdx-25" value="TRUE" style="text;html=1;strokeColor=none;fillColor=none;align=center;verticalAlign=middle;whiteSpace=wrap;rounded=0;" vertex="1" parent="cTdk-ve982rPjJKOEt5p-1">
          <mxGeometry x="420" y="420" width="40" height="20" as="geometry" />
        </mxCell>
        <mxCell id="MUvSTqA5xBFWLevcXFdx-32" value="loggedin()" style="shape=process;whiteSpace=wrap;html=1;backgroundOutline=1;" vertex="1" parent="cTdk-ve982rPjJKOEt5p-1">
          <mxGeometry x="190" y="540" width="120" height="30" as="geometry" />
        </mxCell>
      </root>
    </mxGraphModel>
  </diagram>
  <diagram id="Ox7d96CMWLXMQYNxCSZw" name="Page-5">
    <mxGraphModel dx="2072" dy="1162" grid="1" gridSize="10" guides="1" tooltips="1" connect="1" arrows="1" fold="1" page="1" pageScale="1" pageWidth="850" pageHeight="1100" math="0" shadow="0">
      <root>
        <mxCell id="ax-H2echGSUpjxNG58Hg-0" />
        <mxCell id="ax-H2echGSUpjxNG58Hg-1" parent="ax-H2echGSUpjxNG58Hg-0" />
        <mxCell id="qLVN4DxrFY1Bib3Qk8nv-0" value="" style="edgeStyle=orthogonalEdgeStyle;rounded=0;orthogonalLoop=1;jettySize=auto;html=1;" edge="1" parent="ax-H2echGSUpjxNG58Hg-1" source="qLVN4DxrFY1Bib3Qk8nv-1" target="qLVN4DxrFY1Bib3Qk8nv-3">
          <mxGeometry relative="1" as="geometry" />
        </mxCell>
        <mxCell id="qLVN4DxrFY1Bib3Qk8nv-1" value="void loggedin()" style="ellipse;whiteSpace=wrap;html=1;" vertex="1" parent="ax-H2echGSUpjxNG58Hg-1">
          <mxGeometry x="354" y="50" width="120" height="40" as="geometry" />
        </mxCell>
        <mxCell id="qLVN4DxrFY1Bib3Qk8nv-2" value="" style="edgeStyle=orthogonalEdgeStyle;rounded=0;orthogonalLoop=1;jettySize=auto;html=1;" edge="1" parent="ax-H2echGSUpjxNG58Hg-1" source="qLVN4DxrFY1Bib3Qk8nv-3" target="qLVN4DxrFY1Bib3Qk8nv-5">
          <mxGeometry relative="1" as="geometry" />
        </mxCell>
        <mxCell id="qLVN4DxrFY1Bib3Qk8nv-3" value="&lt;div&gt;&lt;span&gt;Declare int closedoor&lt;/span&gt;&lt;/div&gt;" style="whiteSpace=wrap;html=1;align=center;" vertex="1" parent="ax-H2echGSUpjxNG58Hg-1">
          <mxGeometry x="305.51" y="110" width="217" height="30" as="geometry" />
        </mxCell>
        <mxCell id="qLVN4DxrFY1Bib3Qk8nv-4" value="" style="edgeStyle=orthogonalEdgeStyle;rounded=0;orthogonalLoop=1;jettySize=auto;html=1;" edge="1" parent="ax-H2echGSUpjxNG58Hg-1" source="qLVN4DxrFY1Bib3Qk8nv-5" target="qLVN4DxrFY1Bib3Qk8nv-8">
          <mxGeometry relative="1" as="geometry" />
        </mxCell>
        <mxCell id="qLVN4DxrFY1Bib3Qk8nv-5" value="Display&amp;nbsp;&lt;span&gt;&quot;=========================================== &quot;&lt;/span&gt;&lt;div&gt;&amp;nbsp; Display &quot;[SECUREBOX] &quot;&amp;nbsp;&lt;/div&gt;&lt;div&gt;&amp;nbsp; Display &quot;=========================================== &quot;&lt;/div&gt;&lt;div&gt;&amp;nbsp; Display &quot;You have successfully logged in &quot;&lt;/div&gt;&lt;div&gt;&lt;span&gt;&amp;nbsp; Display &quot;Your SECUREBOX is currently open.&amp;nbsp;&lt;/span&gt;&lt;/div&gt;&lt;div&gt;&lt;span&gt;Please close the door and input [1] to lock the door &quot;&lt;/span&gt;&lt;br&gt;&lt;/div&gt;&lt;div&gt;&lt;span&gt;Input closedoor&lt;/span&gt;&lt;br&gt;&lt;/div&gt;&lt;div&gt;&lt;br&gt;&lt;/div&gt;" style="shape=parallelogram;perimeter=parallelogramPerimeter;whiteSpace=wrap;html=1;fixedSize=1;align=center;" vertex="1" parent="ax-H2echGSUpjxNG58Hg-1">
          <mxGeometry x="145.63" y="170" width="536.75" height="110" as="geometry" />
        </mxCell>
        <mxCell id="qLVN4DxrFY1Bib3Qk8nv-6" value="" style="edgeStyle=orthogonalEdgeStyle;rounded=0;orthogonalLoop=1;jettySize=auto;html=1;" edge="1" parent="ax-H2echGSUpjxNG58Hg-1" source="qLVN4DxrFY1Bib3Qk8nv-8" target="qLVN4DxrFY1Bib3Qk8nv-12">
          <mxGeometry relative="1" as="geometry" />
        </mxCell>
        <mxCell id="qLVN4DxrFY1Bib3Qk8nv-7" value="" style="edgeStyle=orthogonalEdgeStyle;rounded=0;orthogonalLoop=1;jettySize=auto;html=1;entryX=0.5;entryY=0;entryDx=0;entryDy=0;" edge="1" parent="ax-H2echGSUpjxNG58Hg-1" source="qLVN4DxrFY1Bib3Qk8nv-8" target="qLVN4DxrFY1Bib3Qk8nv-15">
          <mxGeometry relative="1" as="geometry">
            <mxPoint x="245.5" y="610" as="targetPoint" />
          </mxGeometry>
        </mxCell>
        <mxCell id="qLVN4DxrFY1Bib3Qk8nv-8" value="if(closedoor ==1)" style="rhombus;whiteSpace=wrap;html=1;" vertex="1" parent="ax-H2echGSUpjxNG58Hg-1">
          <mxGeometry x="70" y="390" width="358.5" height="110" as="geometry" />
        </mxCell>
        <mxCell id="qLVN4DxrFY1Bib3Qk8nv-9" value="menu()" style="shape=process;whiteSpace=wrap;html=1;backgroundOutline=1;" vertex="1" parent="ax-H2echGSUpjxNG58Hg-1">
          <mxGeometry x="650" y="427.5" width="140" height="35" as="geometry" />
        </mxCell>
        <mxCell id="qLVN4DxrFY1Bib3Qk8nv-10" value="FALSE" style="text;html=1;strokeColor=none;fillColor=none;align=center;verticalAlign=middle;whiteSpace=wrap;rounded=0;" vertex="1" parent="ax-H2echGSUpjxNG58Hg-1">
          <mxGeometry x="260" y="530" width="40" height="20" as="geometry" />
        </mxCell>
        <mxCell id="qLVN4DxrFY1Bib3Qk8nv-11" value="" style="edgeStyle=orthogonalEdgeStyle;rounded=0;orthogonalLoop=1;jettySize=auto;html=1;" edge="1" parent="ax-H2echGSUpjxNG58Hg-1" source="qLVN4DxrFY1Bib3Qk8nv-12" target="qLVN4DxrFY1Bib3Qk8nv-9">
          <mxGeometry relative="1" as="geometry" />
        </mxCell>
        <mxCell id="qLVN4DxrFY1Bib3Qk8nv-12" value="Display &quot;Your &lt;br&gt;SECUREBOX is currently locked.&quot;" style="shape=parallelogram;perimeter=parallelogramPerimeter;whiteSpace=wrap;html=1;fixedSize=1;" vertex="1" parent="ax-H2echGSUpjxNG58Hg-1">
          <mxGeometry x="460" y="417.5" width="160" height="55" as="geometry" />
        </mxCell>
        <mxCell id="qLVN4DxrFY1Bib3Qk8nv-13" value="TRUE" style="text;html=1;strokeColor=none;fillColor=none;align=center;verticalAlign=middle;whiteSpace=wrap;rounded=0;" vertex="1" parent="ax-H2echGSUpjxNG58Hg-1">
          <mxGeometry x="425" y="417.5" width="40" height="20" as="geometry" />
        </mxCell>
        <mxCell id="qLVN4DxrFY1Bib3Qk8nv-19" value="" style="edgeStyle=orthogonalEdgeStyle;rounded=0;orthogonalLoop=1;jettySize=auto;html=1;entryX=1;entryY=0.5;entryDx=0;entryDy=0;" edge="1" parent="ax-H2echGSUpjxNG58Hg-1" source="qLVN4DxrFY1Bib3Qk8nv-15" target="qLVN4DxrFY1Bib3Qk8nv-1">
          <mxGeometry relative="1" as="geometry">
            <mxPoint x="429.6300000000001" y="587.5000000000002" as="targetPoint" />
            <Array as="points">
              <mxPoint x="800" y="588" />
              <mxPoint x="800" y="70" />
            </Array>
          </mxGeometry>
        </mxCell>
        <mxCell id="qLVN4DxrFY1Bib3Qk8nv-15" value="Display &quot;Invalid Input.&lt;br&gt;&amp;nbsp;Try again&quot;" style="shape=parallelogram;perimeter=parallelogramPerimeter;whiteSpace=wrap;html=1;fixedSize=1;" vertex="1" parent="ax-H2echGSUpjxNG58Hg-1">
          <mxGeometry x="158.88" y="560" width="180.75" height="55" as="geometry" />
        </mxCell>
      </root>
    </mxGraphModel>
  </diagram>
  <diagram id="_LTLlAMqA2hLL-nl4hIG" name="Page-6">
    <mxGraphModel dx="1243" dy="697" grid="1" gridSize="10" guides="1" tooltips="1" connect="1" arrows="1" fold="1" page="1" pageScale="1" pageWidth="850" pageHeight="1100" math="0" shadow="0">
      <root>
        <mxCell id="k-D_0XLsLGPrvLr1hjDd-0" />
        <mxCell id="k-D_0XLsLGPrvLr1hjDd-1" parent="k-D_0XLsLGPrvLr1hjDd-0" />
        <mxCell id="UmSe3fp3H4lypDFJzZ7W-16" value="" style="edgeStyle=orthogonalEdgeStyle;rounded=0;orthogonalLoop=1;jettySize=auto;html=1;" edge="1" parent="k-D_0XLsLGPrvLr1hjDd-1" source="UmSe3fp3H4lypDFJzZ7W-1" target="UmSe3fp3H4lypDFJzZ7W-5">
          <mxGeometry relative="1" as="geometry" />
        </mxCell>
        <mxCell id="UmSe3fp3H4lypDFJzZ7W-1" value="void signup()" style="ellipse;whiteSpace=wrap;html=1;" vertex="1" parent="k-D_0XLsLGPrvLr1hjDd-1">
          <mxGeometry x="354" y="50" width="120" height="40" as="geometry" />
        </mxCell>
        <mxCell id="UmSe3fp3H4lypDFJzZ7W-4" value="" style="edgeStyle=orthogonalEdgeStyle;rounded=0;orthogonalLoop=1;jettySize=auto;html=1;" edge="1" parent="k-D_0XLsLGPrvLr1hjDd-1" source="UmSe3fp3H4lypDFJzZ7W-5">
          <mxGeometry relative="1" as="geometry">
            <mxPoint x="414" y="310" as="targetPoint" />
          </mxGeometry>
        </mxCell>
        <mxCell id="UmSe3fp3H4lypDFJzZ7W-5" value="Display&amp;nbsp;&lt;span&gt;&quot;=========================================== &quot;&lt;/span&gt;&lt;div&gt;&amp;nbsp; Display &quot;[SECUREBOX] Sign Up&quot;&amp;nbsp;&lt;/div&gt;&lt;div&gt;&amp;nbsp; Display &quot;=========================================== &quot;&lt;/div&gt;&lt;div&gt;&amp;nbsp; Display &quot;Enter your username&quot;&lt;/div&gt;&lt;div&gt;&lt;span&gt;Input username&amp;nbsp;&lt;/span&gt;&lt;/div&gt;" style="shape=parallelogram;perimeter=parallelogramPerimeter;whiteSpace=wrap;html=1;fixedSize=1;align=center;" vertex="1" parent="k-D_0XLsLGPrvLr1hjDd-1">
          <mxGeometry x="145.63" y="170" width="536.75" height="80" as="geometry" />
        </mxCell>
        <mxCell id="UmSe3fp3H4lypDFJzZ7W-19" value="" style="edgeStyle=orthogonalEdgeStyle;rounded=0;orthogonalLoop=1;jettySize=auto;html=1;" edge="1" parent="k-D_0XLsLGPrvLr1hjDd-1" source="UmSe3fp3H4lypDFJzZ7W-17" target="UmSe3fp3H4lypDFJzZ7W-18">
          <mxGeometry relative="1" as="geometry" />
        </mxCell>
        <mxCell id="UmSe3fp3H4lypDFJzZ7W-17" value="setpassword()" style="shape=process;whiteSpace=wrap;html=1;backgroundOutline=1;align=center;" vertex="1" parent="k-D_0XLsLGPrvLr1hjDd-1">
          <mxGeometry x="354" y="310" width="120" height="30" as="geometry" />
        </mxCell>
        <mxCell id="UmSe3fp3H4lypDFJzZ7W-21" value="" style="edgeStyle=orthogonalEdgeStyle;rounded=0;orthogonalLoop=1;jettySize=auto;html=1;" edge="1" parent="k-D_0XLsLGPrvLr1hjDd-1" source="UmSe3fp3H4lypDFJzZ7W-18" target="UmSe3fp3H4lypDFJzZ7W-20">
          <mxGeometry relative="1" as="geometry" />
        </mxCell>
        <mxCell id="UmSe3fp3H4lypDFJzZ7W-18" value="&lt;div&gt;Display &quot;=========================================== &quot;&lt;/div&gt;&lt;div&gt;&lt;span&gt;	&lt;/span&gt;&amp;nbsp; &amp;nbsp;Display &quot; [SECUREBOX] Security Question &quot;&lt;/div&gt;&lt;div&gt;&lt;span&gt;	&lt;/span&gt;&amp;nbsp; &amp;nbsp;Display &quot;=========================================== &quot;&lt;/div&gt;&lt;div&gt;&amp;nbsp; &lt;span&gt;	&lt;/span&gt;&amp;nbsp; &amp;nbsp;Display &quot;[NOTE : Do not include space for each answer] &quot;&lt;/div&gt;&lt;div&gt;Display question1&amp;nbsp;&lt;/div&gt;&lt;div&gt;Input ansq1&lt;/div&gt;&lt;div&gt;Display question2&lt;/div&gt;&lt;div&gt;Input ansq2&lt;/div&gt;&lt;div&gt;Display question3&amp;nbsp;&lt;/div&gt;&lt;div&gt;Input ansq3&lt;/div&gt;" style="shape=parallelogram;perimeter=parallelogramPerimeter;whiteSpace=wrap;html=1;fixedSize=1;" vertex="1" parent="k-D_0XLsLGPrvLr1hjDd-1">
          <mxGeometry x="157" y="370" width="514" height="140" as="geometry" />
        </mxCell>
        <mxCell id="UmSe3fp3H4lypDFJzZ7W-20" value="menu()" style="shape=process;whiteSpace=wrap;html=1;backgroundOutline=1;" vertex="1" parent="k-D_0XLsLGPrvLr1hjDd-1">
          <mxGeometry x="354.01" y="540" width="120" height="30" as="geometry" />
        </mxCell>
      </root>
    </mxGraphModel>
  </diagram>
  <diagram id="x4UMsCRsR_U1f3uJQX6Y" name="Page-7">
    <mxGraphModel dx="1462" dy="820" grid="1" gridSize="10" guides="1" tooltips="1" connect="1" arrows="1" fold="1" page="1" pageScale="1" pageWidth="850" pageHeight="1100" math="0" shadow="0">
      <root>
        <mxCell id="vN4Qq_XfWaI4Kas1CUuj-0" />
        <mxCell id="vN4Qq_XfWaI4Kas1CUuj-1" parent="vN4Qq_XfWaI4Kas1CUuj-0" />
        <mxCell id="OQksA6tgeXUvwZkhPV-r-10" value="" style="edgeStyle=orthogonalEdgeStyle;rounded=0;orthogonalLoop=1;jettySize=auto;html=1;" edge="1" parent="vN4Qq_XfWaI4Kas1CUuj-1" source="OQksA6tgeXUvwZkhPV-r-1" target="OQksA6tgeXUvwZkhPV-r-9">
          <mxGeometry relative="1" as="geometry" />
        </mxCell>
        <mxCell id="OQksA6tgeXUvwZkhPV-r-1" value="void reset()" style="ellipse;whiteSpace=wrap;html=1;" vertex="1" parent="vN4Qq_XfWaI4Kas1CUuj-1">
          <mxGeometry x="354" y="50" width="120" height="40" as="geometry" />
        </mxCell>
        <mxCell id="OQksA6tgeXUvwZkhPV-r-12" value="" style="edgeStyle=orthogonalEdgeStyle;rounded=0;orthogonalLoop=1;jettySize=auto;html=1;" edge="1" parent="vN4Qq_XfWaI4Kas1CUuj-1" source="OQksA6tgeXUvwZkhPV-r-9" target="OQksA6tgeXUvwZkhPV-r-11">
          <mxGeometry relative="1" as="geometry" />
        </mxCell>
        <mxCell id="OQksA6tgeXUvwZkhPV-r-9" value="Declare&amp;nbsp;&lt;span&gt;int question, gate = 0;&lt;/span&gt;&lt;div&gt;&amp;nbsp; char holdusername[100] , password[100], holdans[20];&lt;/div&gt;" style="whiteSpace=wrap;html=1;" vertex="1" parent="vN4Qq_XfWaI4Kas1CUuj-1">
          <mxGeometry x="276" y="120" width="276" height="60" as="geometry" />
        </mxCell>
        <mxCell id="OQksA6tgeXUvwZkhPV-r-14" value="" style="edgeStyle=orthogonalEdgeStyle;rounded=0;orthogonalLoop=1;jettySize=auto;html=1;" edge="1" parent="vN4Qq_XfWaI4Kas1CUuj-1" source="OQksA6tgeXUvwZkhPV-r-11" target="OQksA6tgeXUvwZkhPV-r-13">
          <mxGeometry relative="1" as="geometry" />
        </mxCell>
        <mxCell id="OQksA6tgeXUvwZkhPV-r-11" value="&lt;div&gt;Display &quot;=========================================== &quot;&lt;/div&gt;&lt;div&gt;&amp;nbsp; Display &quot;[SECUREBOX] Reset Password &quot;&lt;/div&gt;&lt;div&gt;&amp;nbsp; Display &quot;=========================================== &quot;&lt;/div&gt;&lt;div&gt;Display &quot;Enter your username : &quot;&lt;/div&gt;&lt;div&gt;Input holdusername&lt;/div&gt;" style="shape=parallelogram;perimeter=parallelogramPerimeter;whiteSpace=wrap;html=1;fixedSize=1;" vertex="1" parent="vN4Qq_XfWaI4Kas1CUuj-1">
          <mxGeometry x="177" y="210" width="474" height="80" as="geometry" />
        </mxCell>
        <mxCell id="OQksA6tgeXUvwZkhPV-r-18" value="" style="edgeStyle=orthogonalEdgeStyle;rounded=0;orthogonalLoop=1;jettySize=auto;html=1;" edge="1" parent="vN4Qq_XfWaI4Kas1CUuj-1" source="OQksA6tgeXUvwZkhPV-r-13" target="OQksA6tgeXUvwZkhPV-r-17">
          <mxGeometry relative="1" as="geometry" />
        </mxCell>
        <mxCell id="OQksA6tgeXUvwZkhPV-r-24" value="" style="edgeStyle=orthogonalEdgeStyle;rounded=0;orthogonalLoop=1;jettySize=auto;html=1;" edge="1" parent="vN4Qq_XfWaI4Kas1CUuj-1" source="OQksA6tgeXUvwZkhPV-r-13" target="OQksA6tgeXUvwZkhPV-r-23">
          <mxGeometry relative="1" as="geometry" />
        </mxCell>
        <mxCell id="OQksA6tgeXUvwZkhPV-r-13" value="if(strcmp(holdusername,username) != 0)" style="rhombus;whiteSpace=wrap;html=1;" vertex="1" parent="vN4Qq_XfWaI4Kas1CUuj-1">
          <mxGeometry x="256" y="330" width="316" height="90" as="geometry" />
        </mxCell>
        <mxCell id="OQksA6tgeXUvwZkhPV-r-22" value="" style="edgeStyle=orthogonalEdgeStyle;rounded=0;orthogonalLoop=1;jettySize=auto;html=1;entryX=1;entryY=0.5;entryDx=0;entryDy=0;" edge="1" parent="vN4Qq_XfWaI4Kas1CUuj-1" source="OQksA6tgeXUvwZkhPV-r-17" target="OQksA6tgeXUvwZkhPV-r-1">
          <mxGeometry relative="1" as="geometry">
            <mxPoint x="705" y="265" as="targetPoint" />
            <Array as="points">
              <mxPoint x="720" y="70" />
            </Array>
          </mxGeometry>
        </mxCell>
        <mxCell id="OQksA6tgeXUvwZkhPV-r-17" value="Display &quot;Your username is&lt;br&gt;&amp;nbsp;incorrect, try again&quot;" style="shape=parallelogram;perimeter=parallelogramPerimeter;whiteSpace=wrap;html=1;fixedSize=1;" vertex="1" parent="vN4Qq_XfWaI4Kas1CUuj-1">
          <mxGeometry x="610" y="345" width="190" height="60" as="geometry" />
        </mxCell>
        <mxCell id="MTp1HQBwlgZAa34IldVW-1" value="" style="edgeStyle=orthogonalEdgeStyle;rounded=0;orthogonalLoop=1;jettySize=auto;html=1;" edge="1" parent="vN4Qq_XfWaI4Kas1CUuj-1" source="OQksA6tgeXUvwZkhPV-r-23">
          <mxGeometry relative="1" as="geometry">
            <mxPoint x="414" y="570" as="targetPoint" />
          </mxGeometry>
        </mxCell>
        <mxCell id="OQksA6tgeXUvwZkhPV-r-23" value="&lt;div&gt;Display &quot;Choose at least 1 security question : &quot;&lt;/div&gt;&lt;div&gt;Display &quot;1. &quot;, question1&lt;/div&gt;&lt;div&gt;Display &quot;2.&quot; , question2&lt;/div&gt;&lt;div&gt;Display &quot;3.&quot; , question3&lt;/div&gt;" style="shape=parallelogram;perimeter=parallelogramPerimeter;whiteSpace=wrap;html=1;fixedSize=1;" vertex="1" parent="vN4Qq_XfWaI4Kas1CUuj-1">
          <mxGeometry x="226" y="470" width="376" height="60" as="geometry" />
        </mxCell>
        <mxCell id="OQksA6tgeXUvwZkhPV-r-25" value="TRUE" style="text;html=1;strokeColor=none;fillColor=none;align=center;verticalAlign=middle;whiteSpace=wrap;rounded=0;" vertex="1" parent="vN4Qq_XfWaI4Kas1CUuj-1">
          <mxGeometry x="552" y="340" width="40" height="20" as="geometry" />
        </mxCell>
        <mxCell id="OQksA6tgeXUvwZkhPV-r-26" value="FALSE" style="text;html=1;strokeColor=none;fillColor=none;align=center;verticalAlign=middle;whiteSpace=wrap;rounded=0;" vertex="1" parent="vN4Qq_XfWaI4Kas1CUuj-1">
          <mxGeometry x="420" y="440" width="40" height="20" as="geometry" />
        </mxCell>
        <mxCell id="MTp1HQBwlgZAa34IldVW-4" value="" style="edgeStyle=orthogonalEdgeStyle;rounded=0;orthogonalLoop=1;jettySize=auto;html=1;" edge="1" parent="vN4Qq_XfWaI4Kas1CUuj-1" source="MTp1HQBwlgZAa34IldVW-2" target="MTp1HQBwlgZAa34IldVW-3">
          <mxGeometry relative="1" as="geometry" />
        </mxCell>
        <mxCell id="MTp1HQBwlgZAa34IldVW-2" value="&lt;div&gt;Display &quot;Enter question [1/2/3] : &quot;&lt;/div&gt;&lt;div&gt;Input question&lt;/div&gt;" style="shape=parallelogram;perimeter=parallelogramPerimeter;whiteSpace=wrap;html=1;fixedSize=1;align=center;" vertex="1" parent="vN4Qq_XfWaI4Kas1CUuj-1">
          <mxGeometry x="242" y="570" width="330" height="60" as="geometry" />
        </mxCell>
        <mxCell id="MTp1HQBwlgZAa34IldVW-6" value="" style="edgeStyle=orthogonalEdgeStyle;rounded=0;orthogonalLoop=1;jettySize=auto;html=1;" edge="1" parent="vN4Qq_XfWaI4Kas1CUuj-1" source="MTp1HQBwlgZAa34IldVW-3" target="MTp1HQBwlgZAa34IldVW-5">
          <mxGeometry relative="1" as="geometry" />
        </mxCell>
        <mxCell id="MTp1HQBwlgZAa34IldVW-21" value="" style="edgeStyle=orthogonalEdgeStyle;rounded=0;orthogonalLoop=1;jettySize=auto;html=1;" edge="1" parent="vN4Qq_XfWaI4Kas1CUuj-1" source="MTp1HQBwlgZAa34IldVW-3" target="MTp1HQBwlgZAa34IldVW-20">
          <mxGeometry relative="1" as="geometry" />
        </mxCell>
        <mxCell id="MTp1HQBwlgZAa34IldVW-3" value="if(question==1)" style="rhombus;whiteSpace=wrap;html=1;" vertex="1" parent="vN4Qq_XfWaI4Kas1CUuj-1">
          <mxGeometry x="320.5" y="660" width="173" height="80" as="geometry" />
        </mxCell>
        <mxCell id="MTp1HQBwlgZAa34IldVW-8" value="" style="edgeStyle=orthogonalEdgeStyle;rounded=0;orthogonalLoop=1;jettySize=auto;html=1;" edge="1" parent="vN4Qq_XfWaI4Kas1CUuj-1" source="MTp1HQBwlgZAa34IldVW-5" target="MTp1HQBwlgZAa34IldVW-7">
          <mxGeometry relative="1" as="geometry" />
        </mxCell>
        <mxCell id="MTp1HQBwlgZAa34IldVW-5" value="Display question1&lt;br&gt;Display &quot;Answer : &quot;&lt;br&gt;Input holdans" style="shape=parallelogram;perimeter=parallelogramPerimeter;whiteSpace=wrap;html=1;fixedSize=1;" vertex="1" parent="vN4Qq_XfWaI4Kas1CUuj-1">
          <mxGeometry x="531" y="670" width="159" height="60" as="geometry" />
        </mxCell>
        <mxCell id="MTp1HQBwlgZAa34IldVW-10" value="" style="edgeStyle=orthogonalEdgeStyle;rounded=0;orthogonalLoop=1;jettySize=auto;html=1;" edge="1" parent="vN4Qq_XfWaI4Kas1CUuj-1" source="MTp1HQBwlgZAa34IldVW-7" target="MTp1HQBwlgZAa34IldVW-9">
          <mxGeometry relative="1" as="geometry" />
        </mxCell>
        <mxCell id="URU6VwRSWVAabxBAuj2--1" value="" style="edgeStyle=orthogonalEdgeStyle;rounded=0;orthogonalLoop=1;jettySize=auto;html=1;" edge="1" parent="vN4Qq_XfWaI4Kas1CUuj-1" source="MTp1HQBwlgZAa34IldVW-7" target="URU6VwRSWVAabxBAuj2--0">
          <mxGeometry relative="1" as="geometry" />
        </mxCell>
        <mxCell id="MTp1HQBwlgZAa34IldVW-7" value="&lt;div&gt;&lt;span&gt;		&lt;/span&gt;&amp;nbsp; &amp;nbsp; if(strcmp(holdans,ansq1)==0)&lt;/div&gt;" style="rhombus;whiteSpace=wrap;html=1;" vertex="1" parent="vN4Qq_XfWaI4Kas1CUuj-1">
          <mxGeometry x="505.75" y="750" width="209.5" height="80" as="geometry" />
        </mxCell>
        <mxCell id="MTp1HQBwlgZAa34IldVW-13" value="" style="edgeStyle=orthogonalEdgeStyle;rounded=0;orthogonalLoop=1;jettySize=auto;html=1;" edge="1" parent="vN4Qq_XfWaI4Kas1CUuj-1" source="MTp1HQBwlgZAa34IldVW-9" target="MTp1HQBwlgZAa34IldVW-12">
          <mxGeometry relative="1" as="geometry" />
        </mxCell>
        <mxCell id="MTp1HQBwlgZAa34IldVW-9" value="Set gate = 1" style="whiteSpace=wrap;html=1;" vertex="1" parent="vN4Qq_XfWaI4Kas1CUuj-1">
          <mxGeometry x="550.5" y="860" width="120" height="30" as="geometry" />
        </mxCell>
        <mxCell id="MTp1HQBwlgZAa34IldVW-17" value="" style="edgeStyle=orthogonalEdgeStyle;rounded=0;orthogonalLoop=1;jettySize=auto;html=1;" edge="1" parent="vN4Qq_XfWaI4Kas1CUuj-1" source="MTp1HQBwlgZAa34IldVW-12" target="MTp1HQBwlgZAa34IldVW-16">
          <mxGeometry relative="1" as="geometry" />
        </mxCell>
        <mxCell id="MTp1HQBwlgZAa34IldVW-12" value="&lt;div&gt;&lt;span&gt;		&lt;/span&gt;&amp;nbsp; &amp;nbsp; &lt;span&gt;	&lt;/span&gt;Display &quot;=========================================== &quot;&lt;/div&gt;&lt;div&gt;Display &quot; [SECUREBOX] Setup Your New Password&quot;&lt;/div&gt;&lt;div&gt;&lt;span&gt;				&lt;/span&gt;Display &quot;===========================================&quot;&lt;/div&gt;" style="shape=parallelogram;perimeter=parallelogramPerimeter;whiteSpace=wrap;html=1;fixedSize=1;" vertex="1" parent="vN4Qq_XfWaI4Kas1CUuj-1">
          <mxGeometry x="290.5" y="920" width="509.5" height="60" as="geometry" />
        </mxCell>
        <mxCell id="MTp1HQBwlgZAa34IldVW-19" value="" style="edgeStyle=orthogonalEdgeStyle;rounded=0;orthogonalLoop=1;jettySize=auto;html=1;" edge="1" parent="vN4Qq_XfWaI4Kas1CUuj-1" source="MTp1HQBwlgZAa34IldVW-16" target="MTp1HQBwlgZAa34IldVW-18">
          <mxGeometry relative="1" as="geometry" />
        </mxCell>
        <mxCell id="MTp1HQBwlgZAa34IldVW-16" value="setpassword()" style="shape=process;whiteSpace=wrap;html=1;backgroundOutline=1;" vertex="1" parent="vN4Qq_XfWaI4Kas1CUuj-1">
          <mxGeometry x="505.75" y="1010" width="120" height="40" as="geometry" />
        </mxCell>
        <mxCell id="MTp1HQBwlgZAa34IldVW-18" value="menu()" style="shape=process;whiteSpace=wrap;html=1;backgroundOutline=1;" vertex="1" parent="vN4Qq_XfWaI4Kas1CUuj-1">
          <mxGeometry x="670.5" y="1010" width="120" height="40" as="geometry" />
        </mxCell>
        <mxCell id="MTp1HQBwlgZAa34IldVW-20" value="A" style="ellipse;whiteSpace=wrap;html=1;aspect=fixed;align=center;" vertex="1" parent="vN4Qq_XfWaI4Kas1CUuj-1">
          <mxGeometry x="226" y="675" width="50" height="50" as="geometry" />
        </mxCell>
        <mxCell id="URU6VwRSWVAabxBAuj2--0" value="Display &quot;Your answer is&lt;br&gt;&amp;nbsp;incorrect. Please try again&quot;" style="shape=parallelogram;perimeter=parallelogramPerimeter;whiteSpace=wrap;html=1;fixedSize=1;" vertex="1" parent="vN4Qq_XfWaI4Kas1CUuj-1">
          <mxGeometry x="210" y="760" width="181" height="60" as="geometry" />
        </mxCell>
        <mxCell id="7-J9khkWisvLdp9nikjn-0" value="TRUE&lt;span style=&quot;color: rgba(0 , 0 , 0 , 0) ; font-family: monospace ; font-size: 0px&quot;&gt;%3CmxGraphModel%3E%3Croot%3E%3CmxCell%20id%3D%220%22%2F%3E%3CmxCell%20id%3D%221%22%20parent%3D%220%22%2F%3E%3CmxCell%20id%3D%222%22%20value%3D%22%22%20style%3D%22edgeStyle%3DorthogonalEdgeStyle%3Brounded%3D0%3BorthogonalLoop%3D1%3BjettySize%3Dauto%3Bhtml%3D1%3B%22%20edge%3D%221%22%20source%3D%224%22%20target%3D%226%22%20parent%3D%221%22%3E%3CmxGeometry%20relative%3D%221%22%20as%3D%22geometry%22%2F%3E%3C%2FmxCell%3E%3CmxCell%20id%3D%223%22%20value%3D%22%22%20style%3D%22edgeStyle%3DorthogonalEdgeStyle%3Brounded%3D0%3BorthogonalLoop%3D1%3BjettySize%3Dauto%3Bhtml%3D1%3B%22%20edge%3D%221%22%20source%3D%224%22%20parent%3D%221%22%3E%3CmxGeometry%20relative%3D%221%22%20as%3D%22geometry%22%3E%3CmxPoint%20x%3D%22276%22%20y%3D%22700%22%20as%3D%22targetPoint%22%2F%3E%3C%2FmxGeometry%3E%3C%2FmxCell%3E%3CmxCell%20id%3D%224%22%20value%3D%22if(question%3D%3D1)%22%20style%3D%22rhombus%3BwhiteSpace%3Dwrap%3Bhtml%3D1%3B%22%20vertex%3D%221%22%20parent%3D%221%22%3E%3CmxGeometry%20x%3D%22320.5%22%20y%3D%22660%22%20width%3D%22173%22%20height%3D%2280%22%20as%3D%22geometry%22%2F%3E%3C%2FmxCell%3E%3CmxCell%20id%3D%225%22%20value%3D%22%22%20style%3D%22edgeStyle%3DorthogonalEdgeStyle%3Brounded%3D0%3BorthogonalLoop%3D1%3BjettySize%3Dauto%3Bhtml%3D1%3B%22%20edge%3D%221%22%20source%3D%226%22%20target%3D%229%22%20parent%3D%221%22%3E%3CmxGeometry%20relative%3D%221%22%20as%3D%22geometry%22%2F%3E%3C%2FmxCell%3E%3CmxCell%20id%3D%226%22%20value%3D%22Display%20question1%26lt%3Bbr%26gt%3BDisplay%20%26quot%3BAnswer%20%3A%20%26quot%3B%26lt%3Bbr%26gt%3BInput%20holdans%22%20style%3D%22shape%3Dparallelogram%3Bperimeter%3DparallelogramPerimeter%3BwhiteSpace%3Dwrap%3Bhtml%3D1%3BfixedSize%3D1%3B%22%20vertex%3D%221%22%20parent%3D%221%22%3E%3CmxGeometry%20x%3D%22531%22%20y%3D%22670%22%20width%3D%22159%22%20height%3D%2260%22%20as%3D%22geometry%22%2F%3E%3C%2FmxCell%3E%3CmxCell%20id%3D%227%22%20value%3D%22%22%20style%3D%22edgeStyle%3DorthogonalEdgeStyle%3Brounded%3D0%3BorthogonalLoop%3D1%3BjettySize%3Dauto%3Bhtml%3D1%3B%22%20edge%3D%221%22%20source%3D%229%22%20target%3D%2211%22%20parent%3D%221%22%3E%3CmxGeometry%20relative%3D%221%22%20as%3D%22geometry%22%2F%3E%3C%2FmxCell%3E%3CmxCell%20id%3D%228%22%20value%3D%22%22%20style%3D%22edgeStyle%3DorthogonalEdgeStyle%3Brounded%3D0%3BorthogonalLoop%3D1%3BjettySize%3Dauto%3Bhtml%3D1%3B%22%20edge%3D%221%22%20source%3D%229%22%20target%3D%2217%22%20parent%3D%221%22%3E%3CmxGeometry%20relative%3D%221%22%20as%3D%22geometry%22%2F%3E%3C%2FmxCell%3E%3CmxCell%20id%3D%229%22%20value%3D%22%26lt%3Bdiv%26gt%3B%26lt%3Bspan%26gt%3B%26%239%3B%26%239%3B%26lt%3B%2Fspan%26gt%3B%26amp%3Bnbsp%3B%20%26amp%3Bnbsp%3B%20if(strcmp(holdans%2Cansq3)%3D%3D0)%26lt%3B%2Fdiv%26gt%3B%22%20style%3D%22rhombus%3BwhiteSpace%3Dwrap%3Bhtml%3D1%3B%22%20vertex%3D%221%22%20parent%3D%221%22%3E%3CmxGeometry%20x%3D%22505.75%22%20y%3D%22750%22%20width%3D%22209.5%22%20height%3D%2280%22%20as%3D%22geometry%22%2F%3E%3C%2FmxCell%3E%3CmxCell%20id%3D%2210%22%20value%3D%22%22%20style%3D%22edgeStyle%3DorthogonalEdgeStyle%3Brounded%3D0%3BorthogonalLoop%3D1%3BjettySize%3Dauto%3Bhtml%3D1%3B%22%20edge%3D%221%22%20source%3D%2211%22%20target%3D%2213%22%20parent%3D%221%22%3E%3CmxGeometry%20relative%3D%221%22%20as%3D%22geometry%22%2F%3E%3C%2FmxCell%3E%3CmxCell%20id%3D%2211%22%20value%3D%22Set%20gate%20%3D%201%22%20style%3D%22whiteSpace%3Dwrap%3Bhtml%3D1%3B%22%20vertex%3D%221%22%20parent%3D%221%22%3E%3CmxGeometry%20x%3D%22550.5%22%20y%3D%22860%22%20width%3D%22120%22%20height%3D%2230%22%20as%3D%22geometry%22%2F%3E%3C%2FmxCell%3E%3CmxCell%20id%3D%2212%22%20value%3D%22%22%20style%3D%22edgeStyle%3DorthogonalEdgeStyle%3Brounded%3D0%3BorthogonalLoop%3D1%3BjettySize%3Dauto%3Bhtml%3D1%3B%22%20edge%3D%221%22%20source%3D%2213%22%20target%3D%2215%22%20parent%3D%221%22%3E%3CmxGeometry%20relative%3D%221%22%20as%3D%22geometry%22%2F%3E%3C%2FmxCell%3E%3CmxCell%20id%3D%2213%22%20value%3D%22%26lt%3Bdiv%26gt%3B%26lt%3Bspan%26gt%3B%26%239%3B%26%239%3B%26lt%3B%2Fspan%26gt%3B%26amp%3Bnbsp%3B%20%26amp%3Bnbsp%3B%20%26lt%3Bspan%26gt%3B%26%239%3B%26lt%3B%2Fspan%26gt%3BDisplay%20%26quot%3B%3D%3D%3D%3D%3D%3D%3D%3D%3D%3D%3D%3D%3D%3D%3D%3D%3D%3D%3D%3D%3D%3D%3D%3D%3D%3D%3D%3D%3D%3D%3D%3D%3D%3D%3D%3D%3D%3D%3D%3D%3D%3D%3D%20%26quot%3B%26lt%3B%2Fdiv%26gt%3B%26lt%3Bdiv%26gt%3BDisplay%20%26quot%3B%20%5BSECUREBOX%5D%20Setup%20Your%20New%20Password%26quot%3B%26lt%3B%2Fdiv%26gt%3B%26lt%3Bdiv%26gt%3B%26lt%3Bspan%26gt%3B%26%239%3B%26%239%3B%26%239%3B%26%239%3B%26lt%3B%2Fspan%26gt%3BDisplay%20%26quot%3B%3D%3D%3D%3D%3D%3D%3D%3D%3D%3D%3D%3D%3D%3D%3D%3D%3D%3D%3D%3D%3D%3D%3D%3D%3D%3D%3D%3D%3D%3D%3D%3D%3D%3D%3D%3D%3D%3D%3D%3D%3D%3D%3D%26quot%3B%26lt%3B%2Fdiv%26gt%3B%22%20style%3D%22shape%3Dparallelogram%3Bperimeter%3DparallelogramPerimeter%3BwhiteSpace%3Dwrap%3Bhtml%3D1%3BfixedSize%3D1%3B%22%20vertex%3D%221%22%20parent%3D%221%22%3E%3CmxGeometry%20x%3D%22290.5%22%20y%3D%22920%22%20width%3D%22509.5%22%20height%3D%2260%22%20as%3D%22geometry%22%2F%3E%3C%2FmxCell%3E%3CmxCell%20id%3D%2214%22%20value%3D%22%22%20style%3D%22edgeStyle%3DorthogonalEdgeStyle%3Brounded%3D0%3BorthogonalLoop%3D1%3BjettySize%3Dauto%3Bhtml%3D1%3B%22%20edge%3D%221%22%20source%3D%2215%22%20target%3D%2216%22%20parent%3D%221%22%3E%3CmxGeometry%20relative%3D%221%22%20as%3D%22geometry%22%2F%3E%3C%2FmxCell%3E%3CmxCell%20id%3D%2215%22%20value%3D%22setpassword()%22%20style%3D%22shape%3Dprocess%3BwhiteSpace%3Dwrap%3Bhtml%3D1%3BbackgroundOutline%3D1%3B%22%20vertex%3D%221%22%20parent%3D%221%22%3E%3CmxGeometry%20x%3D%22505.75%22%20y%3D%221010%22%20width%3D%22120%22%20height%3D%2240%22%20as%3D%22geometry%22%2F%3E%3C%2FmxCell%3E%3CmxCell%20id%3D%2216%22%20value%3D%22menu()%22%20style%3D%22shape%3Dprocess%3BwhiteSpace%3Dwrap%3Bhtml%3D1%3BbackgroundOutline%3D1%3B%22%20vertex%3D%221%22%20parent%3D%221%22%3E%3CmxGeometry%20x%3D%22670.5%22%20y%3D%221010%22%20width%3D%22120%22%20height%3D%2240%22%20as%3D%22geometry%22%2F%3E%3C%2FmxCell%3E%3CmxCell%20id%3D%2217%22%20value%3D%22Display%20%26quot%3BYour%20answer%20is%26lt%3Bbr%26gt%3B%26amp%3Bnbsp%3Bincorrect.%20Please%20try%20again%26quot%3B%22%20style%3D%22shape%3Dparallelogram%3Bperimeter%3DparallelogramPerimeter%3BwhiteSpace%3Dwrap%3Bhtml%3D1%3BfixedSize%3D1%3B%22%20vertex%3D%221%22%20parent%3D%221%22%3E%3CmxGeometry%20x%3D%22210%22%20y%3D%22760%22%20width%3D%22181%22%20height%3D%2260%22%20as%3D%22geometry%22%2F%3E%3C%2FmxCell%3E%3C%2Froot%3E%3C%2FmxGraphModel%3E&lt;/span&gt;" style="text;html=1;strokeColor=none;fillColor=none;align=center;verticalAlign=middle;whiteSpace=wrap;rounded=0;" vertex="1" parent="vN4Qq_XfWaI4Kas1CUuj-1">
          <mxGeometry x="474" y="670" width="40" height="20" as="geometry" />
        </mxCell>
        <mxCell id="7-J9khkWisvLdp9nikjn-17" value="FALSE" style="text;html=1;strokeColor=none;fillColor=none;align=center;verticalAlign=middle;whiteSpace=wrap;rounded=0;" vertex="1" parent="vN4Qq_XfWaI4Kas1CUuj-1">
          <mxGeometry x="290.5" y="670" width="40" height="20" as="geometry" />
        </mxCell>
        <mxCell id="7-J9khkWisvLdp9nikjn-18" value="FALSE" style="text;html=1;strokeColor=none;fillColor=none;align=center;verticalAlign=middle;whiteSpace=wrap;rounded=0;" vertex="1" parent="vN4Qq_XfWaI4Kas1CUuj-1">
          <mxGeometry x="450" y="770" width="40" height="20" as="geometry" />
        </mxCell>
        <mxCell id="7-J9khkWisvLdp9nikjn-19" value="TRUE&lt;span style=&quot;color: rgba(0 , 0 , 0 , 0) ; font-family: monospace ; font-size: 0px&quot;&gt;%3CmxGraphModel%3E%3Croot%3E%3CmxCell%20id%3D%220%22%2F%3E%3CmxCell%20id%3D%221%22%20parent%3D%220%22%2F%3E%3CmxCell%20id%3D%222%22%20value%3D%22%22%20style%3D%22edgeStyle%3DorthogonalEdgeStyle%3Brounded%3D0%3BorthogonalLoop%3D1%3BjettySize%3Dauto%3Bhtml%3D1%3B%22%20edge%3D%221%22%20source%3D%224%22%20target%3D%226%22%20parent%3D%221%22%3E%3CmxGeometry%20relative%3D%221%22%20as%3D%22geometry%22%2F%3E%3C%2FmxCell%3E%3CmxCell%20id%3D%223%22%20value%3D%22%22%20style%3D%22edgeStyle%3DorthogonalEdgeStyle%3Brounded%3D0%3BorthogonalLoop%3D1%3BjettySize%3Dauto%3Bhtml%3D1%3B%22%20edge%3D%221%22%20source%3D%224%22%20parent%3D%221%22%3E%3CmxGeometry%20relative%3D%221%22%20as%3D%22geometry%22%3E%3CmxPoint%20x%3D%22276%22%20y%3D%22700%22%20as%3D%22targetPoint%22%2F%3E%3C%2FmxGeometry%3E%3C%2FmxCell%3E%3CmxCell%20id%3D%224%22%20value%3D%22if(question%3D%3D1)%22%20style%3D%22rhombus%3BwhiteSpace%3Dwrap%3Bhtml%3D1%3B%22%20vertex%3D%221%22%20parent%3D%221%22%3E%3CmxGeometry%20x%3D%22320.5%22%20y%3D%22660%22%20width%3D%22173%22%20height%3D%2280%22%20as%3D%22geometry%22%2F%3E%3C%2FmxCell%3E%3CmxCell%20id%3D%225%22%20value%3D%22%22%20style%3D%22edgeStyle%3DorthogonalEdgeStyle%3Brounded%3D0%3BorthogonalLoop%3D1%3BjettySize%3Dauto%3Bhtml%3D1%3B%22%20edge%3D%221%22%20source%3D%226%22%20target%3D%229%22%20parent%3D%221%22%3E%3CmxGeometry%20relative%3D%221%22%20as%3D%22geometry%22%2F%3E%3C%2FmxCell%3E%3CmxCell%20id%3D%226%22%20value%3D%22Display%20question1%26lt%3Bbr%26gt%3BDisplay%20%26quot%3BAnswer%20%3A%20%26quot%3B%26lt%3Bbr%26gt%3BInput%20holdans%22%20style%3D%22shape%3Dparallelogram%3Bperimeter%3DparallelogramPerimeter%3BwhiteSpace%3Dwrap%3Bhtml%3D1%3BfixedSize%3D1%3B%22%20vertex%3D%221%22%20parent%3D%221%22%3E%3CmxGeometry%20x%3D%22531%22%20y%3D%22670%22%20width%3D%22159%22%20height%3D%2260%22%20as%3D%22geometry%22%2F%3E%3C%2FmxCell%3E%3CmxCell%20id%3D%227%22%20value%3D%22%22%20style%3D%22edgeStyle%3DorthogonalEdgeStyle%3Brounded%3D0%3BorthogonalLoop%3D1%3BjettySize%3Dauto%3Bhtml%3D1%3B%22%20edge%3D%221%22%20source%3D%229%22%20target%3D%2211%22%20parent%3D%221%22%3E%3CmxGeometry%20relative%3D%221%22%20as%3D%22geometry%22%2F%3E%3C%2FmxCell%3E%3CmxCell%20id%3D%228%22%20value%3D%22%22%20style%3D%22edgeStyle%3DorthogonalEdgeStyle%3Brounded%3D0%3BorthogonalLoop%3D1%3BjettySize%3Dauto%3Bhtml%3D1%3B%22%20edge%3D%221%22%20source%3D%229%22%20target%3D%2217%22%20parent%3D%221%22%3E%3CmxGeometry%20relative%3D%221%22%20as%3D%22geometry%22%2F%3E%3C%2FmxCell%3E%3CmxCell%20id%3D%229%22%20value%3D%22%26lt%3Bdiv%26gt%3B%26lt%3Bspan%26gt%3B%26%239%3B%26%239%3B%26lt%3B%2Fspan%26gt%3B%26amp%3Bnbsp%3B%20%26amp%3Bnbsp%3B%20if(strcmp(holdans%2Cansq3)%3D%3D0)%26lt%3B%2Fdiv%26gt%3B%22%20style%3D%22rhombus%3BwhiteSpace%3Dwrap%3Bhtml%3D1%3B%22%20vertex%3D%221%22%20parent%3D%221%22%3E%3CmxGeometry%20x%3D%22505.75%22%20y%3D%22750%22%20width%3D%22209.5%22%20height%3D%2280%22%20as%3D%22geometry%22%2F%3E%3C%2FmxCell%3E%3CmxCell%20id%3D%2210%22%20value%3D%22%22%20style%3D%22edgeStyle%3DorthogonalEdgeStyle%3Brounded%3D0%3BorthogonalLoop%3D1%3BjettySize%3Dauto%3Bhtml%3D1%3B%22%20edge%3D%221%22%20source%3D%2211%22%20target%3D%2213%22%20parent%3D%221%22%3E%3CmxGeometry%20relative%3D%221%22%20as%3D%22geometry%22%2F%3E%3C%2FmxCell%3E%3CmxCell%20id%3D%2211%22%20value%3D%22Set%20gate%20%3D%201%22%20style%3D%22whiteSpace%3Dwrap%3Bhtml%3D1%3B%22%20vertex%3D%221%22%20parent%3D%221%22%3E%3CmxGeometry%20x%3D%22550.5%22%20y%3D%22860%22%20width%3D%22120%22%20height%3D%2230%22%20as%3D%22geometry%22%2F%3E%3C%2FmxCell%3E%3CmxCell%20id%3D%2212%22%20value%3D%22%22%20style%3D%22edgeStyle%3DorthogonalEdgeStyle%3Brounded%3D0%3BorthogonalLoop%3D1%3BjettySize%3Dauto%3Bhtml%3D1%3B%22%20edge%3D%221%22%20source%3D%2213%22%20target%3D%2215%22%20parent%3D%221%22%3E%3CmxGeometry%20relative%3D%221%22%20as%3D%22geometry%22%2F%3E%3C%2FmxCell%3E%3CmxCell%20id%3D%2213%22%20value%3D%22%26lt%3Bdiv%26gt%3B%26lt%3Bspan%26gt%3B%26%239%3B%26%239%3B%26lt%3B%2Fspan%26gt%3B%26amp%3Bnbsp%3B%20%26amp%3Bnbsp%3B%20%26lt%3Bspan%26gt%3B%26%239%3B%26lt%3B%2Fspan%26gt%3BDisplay%20%26quot%3B%3D%3D%3D%3D%3D%3D%3D%3D%3D%3D%3D%3D%3D%3D%3D%3D%3D%3D%3D%3D%3D%3D%3D%3D%3D%3D%3D%3D%3D%3D%3D%3D%3D%3D%3D%3D%3D%3D%3D%3D%3D%3D%3D%20%26quot%3B%26lt%3B%2Fdiv%26gt%3B%26lt%3Bdiv%26gt%3BDisplay%20%26quot%3B%20%5BSECUREBOX%5D%20Setup%20Your%20New%20Password%26quot%3B%26lt%3B%2Fdiv%26gt%3B%26lt%3Bdiv%26gt%3B%26lt%3Bspan%26gt%3B%26%239%3B%26%239%3B%26%239%3B%26%239%3B%26lt%3B%2Fspan%26gt%3BDisplay%20%26quot%3B%3D%3D%3D%3D%3D%3D%3D%3D%3D%3D%3D%3D%3D%3D%3D%3D%3D%3D%3D%3D%3D%3D%3D%3D%3D%3D%3D%3D%3D%3D%3D%3D%3D%3D%3D%3D%3D%3D%3D%3D%3D%3D%3D%26quot%3B%26lt%3B%2Fdiv%26gt%3B%22%20style%3D%22shape%3Dparallelogram%3Bperimeter%3DparallelogramPerimeter%3BwhiteSpace%3Dwrap%3Bhtml%3D1%3BfixedSize%3D1%3B%22%20vertex%3D%221%22%20parent%3D%221%22%3E%3CmxGeometry%20x%3D%22290.5%22%20y%3D%22920%22%20width%3D%22509.5%22%20height%3D%2260%22%20as%3D%22geometry%22%2F%3E%3C%2FmxCell%3E%3CmxCell%20id%3D%2214%22%20value%3D%22%22%20style%3D%22edgeStyle%3DorthogonalEdgeStyle%3Brounded%3D0%3BorthogonalLoop%3D1%3BjettySize%3Dauto%3Bhtml%3D1%3B%22%20edge%3D%221%22%20source%3D%2215%22%20target%3D%2216%22%20parent%3D%221%22%3E%3CmxGeometry%20relative%3D%221%22%20as%3D%22geometry%22%2F%3E%3C%2FmxCell%3E%3CmxCell%20id%3D%2215%22%20value%3D%22setpassword()%22%20style%3D%22shape%3Dprocess%3BwhiteSpace%3Dwrap%3Bhtml%3D1%3BbackgroundOutline%3D1%3B%22%20vertex%3D%221%22%20parent%3D%221%22%3E%3CmxGeometry%20x%3D%22505.75%22%20y%3D%221010%22%20width%3D%22120%22%20height%3D%2240%22%20as%3D%22geometry%22%2F%3E%3C%2FmxCell%3E%3CmxCell%20id%3D%2216%22%20value%3D%22menu()%22%20style%3D%22shape%3Dprocess%3BwhiteSpace%3Dwrap%3Bhtml%3D1%3BbackgroundOutline%3D1%3B%22%20vertex%3D%221%22%20parent%3D%221%22%3E%3CmxGeometry%20x%3D%22670.5%22%20y%3D%221010%22%20width%3D%22120%22%20height%3D%2240%22%20as%3D%22geometry%22%2F%3E%3C%2FmxCell%3E%3CmxCell%20id%3D%2217%22%20value%3D%22Display%20%26quot%3BYour%20answer%20is%26lt%3Bbr%26gt%3B%26amp%3Bnbsp%3Bincorrect.%20Please%20try%20again%26quot%3B%22%20style%3D%22shape%3Dparallelogram%3Bperimeter%3DparallelogramPerimeter%3BwhiteSpace%3Dwrap%3Bhtml%3D1%3BfixedSize%3D1%3B%22%20vertex%3D%221%22%20parent%3D%221%22%3E%3CmxGeometry%20x%3D%22210%22%20y%3D%22760%22%20width%3D%22181%22%20height%3D%2260%22%20as%3D%22geometry%22%2F%3E%3C%2FmxCell%3E%3C%2Froot%3E%3C%2FmxGraphModel%3E&lt;/span&gt;" style="text;html=1;strokeColor=none;fillColor=none;align=center;verticalAlign=middle;whiteSpace=wrap;rounded=0;" vertex="1" parent="vN4Qq_XfWaI4Kas1CUuj-1">
          <mxGeometry x="611" y="830" width="40" height="20" as="geometry" />
        </mxCell>
        <mxCell id="jDvR17qx0-U48hBKyk5i-1" value="" style="edgeStyle=orthogonalEdgeStyle;rounded=0;orthogonalLoop=1;jettySize=auto;html=1;" edge="1" parent="vN4Qq_XfWaI4Kas1CUuj-1" source="jDvR17qx0-U48hBKyk5i-0" target="MTp1HQBwlgZAa34IldVW-2">
          <mxGeometry relative="1" as="geometry" />
        </mxCell>
        <mxCell id="jDvR17qx0-U48hBKyk5i-0" value="B" style="ellipse;whiteSpace=wrap;html=1;aspect=fixed;align=center;" vertex="1" parent="vN4Qq_XfWaI4Kas1CUuj-1">
          <mxGeometry x="100" y="575" width="50" height="50" as="geometry" />
        </mxCell>
      </root>
    </mxGraphModel>
  </diagram>
  <diagram id="ajhlWbuWs_So88mjxCcA" name="Page-8">
    <mxGraphModel dx="497" dy="279" grid="1" gridSize="10" guides="1" tooltips="1" connect="1" arrows="1" fold="1" page="1" pageScale="1" pageWidth="850" pageHeight="1100" math="0" shadow="0">
      <root>
        <mxCell id="1lpvek-rqMGuGwZiFW09-0" />
        <mxCell id="1lpvek-rqMGuGwZiFW09-1" parent="1lpvek-rqMGuGwZiFW09-0" />
        <mxCell id="zv12Y5qKYpKNrB67X2l--0" value="" style="edgeStyle=orthogonalEdgeStyle;rounded=0;orthogonalLoop=1;jettySize=auto;html=1;" edge="1" parent="1lpvek-rqMGuGwZiFW09-1" source="zv12Y5qKYpKNrB67X2l--2" target="zv12Y5qKYpKNrB67X2l--4">
          <mxGeometry relative="1" as="geometry" />
        </mxCell>
        <mxCell id="Hy4lpjPg-om_MJYH0gYS-1" value="" style="edgeStyle=orthogonalEdgeStyle;rounded=0;orthogonalLoop=1;jettySize=auto;html=1;entryX=0.5;entryY=0;entryDx=0;entryDy=0;" edge="1" parent="1lpvek-rqMGuGwZiFW09-1" source="zv12Y5qKYpKNrB67X2l--2" target="Hy4lpjPg-om_MJYH0gYS-5">
          <mxGeometry relative="1" as="geometry">
            <mxPoint x="357" y="550" as="targetPoint" />
            <Array as="points">
              <mxPoint x="100" y="150" />
              <mxPoint x="100" y="530" />
              <mxPoint x="357" y="530" />
            </Array>
          </mxGeometry>
        </mxCell>
        <mxCell id="zv12Y5qKYpKNrB67X2l--2" value="else if(question==2)" style="rhombus;whiteSpace=wrap;html=1;" vertex="1" parent="1lpvek-rqMGuGwZiFW09-1">
          <mxGeometry x="270.5" y="110" width="173" height="80" as="geometry" />
        </mxCell>
        <mxCell id="zv12Y5qKYpKNrB67X2l--3" value="" style="edgeStyle=orthogonalEdgeStyle;rounded=0;orthogonalLoop=1;jettySize=auto;html=1;" edge="1" parent="1lpvek-rqMGuGwZiFW09-1" source="zv12Y5qKYpKNrB67X2l--4" target="zv12Y5qKYpKNrB67X2l--7">
          <mxGeometry relative="1" as="geometry" />
        </mxCell>
        <mxCell id="zv12Y5qKYpKNrB67X2l--4" value="Display question2&lt;br&gt;Display &quot;Answer : &quot;&lt;br&gt;Input holdans" style="shape=parallelogram;perimeter=parallelogramPerimeter;whiteSpace=wrap;html=1;fixedSize=1;" vertex="1" parent="1lpvek-rqMGuGwZiFW09-1">
          <mxGeometry x="481" y="120" width="159" height="60" as="geometry" />
        </mxCell>
        <mxCell id="zv12Y5qKYpKNrB67X2l--5" value="" style="edgeStyle=orthogonalEdgeStyle;rounded=0;orthogonalLoop=1;jettySize=auto;html=1;" edge="1" parent="1lpvek-rqMGuGwZiFW09-1" source="zv12Y5qKYpKNrB67X2l--7" target="zv12Y5qKYpKNrB67X2l--9">
          <mxGeometry relative="1" as="geometry" />
        </mxCell>
        <mxCell id="zv12Y5qKYpKNrB67X2l--6" value="" style="edgeStyle=orthogonalEdgeStyle;rounded=0;orthogonalLoop=1;jettySize=auto;html=1;" edge="1" parent="1lpvek-rqMGuGwZiFW09-1" source="zv12Y5qKYpKNrB67X2l--7" target="zv12Y5qKYpKNrB67X2l--15">
          <mxGeometry relative="1" as="geometry" />
        </mxCell>
        <mxCell id="zv12Y5qKYpKNrB67X2l--7" value="&lt;div&gt;&lt;span&gt;		&lt;/span&gt;&amp;nbsp; &amp;nbsp; if(strcmp(holdans,ansq2)==0)&lt;/div&gt;" style="rhombus;whiteSpace=wrap;html=1;" vertex="1" parent="1lpvek-rqMGuGwZiFW09-1">
          <mxGeometry x="455.75" y="200" width="209.5" height="80" as="geometry" />
        </mxCell>
        <mxCell id="zv12Y5qKYpKNrB67X2l--8" value="" style="edgeStyle=orthogonalEdgeStyle;rounded=0;orthogonalLoop=1;jettySize=auto;html=1;" edge="1" parent="1lpvek-rqMGuGwZiFW09-1" source="zv12Y5qKYpKNrB67X2l--9" target="zv12Y5qKYpKNrB67X2l--11">
          <mxGeometry relative="1" as="geometry" />
        </mxCell>
        <mxCell id="zv12Y5qKYpKNrB67X2l--9" value="Set gate = 1" style="whiteSpace=wrap;html=1;" vertex="1" parent="1lpvek-rqMGuGwZiFW09-1">
          <mxGeometry x="500.5" y="310" width="120" height="30" as="geometry" />
        </mxCell>
        <mxCell id="zv12Y5qKYpKNrB67X2l--10" value="" style="edgeStyle=orthogonalEdgeStyle;rounded=0;orthogonalLoop=1;jettySize=auto;html=1;" edge="1" parent="1lpvek-rqMGuGwZiFW09-1" source="zv12Y5qKYpKNrB67X2l--11" target="zv12Y5qKYpKNrB67X2l--13">
          <mxGeometry relative="1" as="geometry" />
        </mxCell>
        <mxCell id="zv12Y5qKYpKNrB67X2l--11" value="&lt;div&gt;&lt;span&gt;		&lt;/span&gt;&amp;nbsp; &amp;nbsp; &lt;span&gt;	&lt;/span&gt;Display &quot;=========================================== &quot;&lt;/div&gt;&lt;div&gt;Display &quot; [SECUREBOX] Setup Your New Password&quot;&lt;/div&gt;&lt;div&gt;&lt;span&gt;				&lt;/span&gt;Display &quot;===========================================&quot;&lt;/div&gt;" style="shape=parallelogram;perimeter=parallelogramPerimeter;whiteSpace=wrap;html=1;fixedSize=1;" vertex="1" parent="1lpvek-rqMGuGwZiFW09-1">
          <mxGeometry x="240.5" y="370" width="509.5" height="60" as="geometry" />
        </mxCell>
        <mxCell id="zv12Y5qKYpKNrB67X2l--12" value="" style="edgeStyle=orthogonalEdgeStyle;rounded=0;orthogonalLoop=1;jettySize=auto;html=1;" edge="1" parent="1lpvek-rqMGuGwZiFW09-1" source="zv12Y5qKYpKNrB67X2l--13" target="zv12Y5qKYpKNrB67X2l--14">
          <mxGeometry relative="1" as="geometry" />
        </mxCell>
        <mxCell id="zv12Y5qKYpKNrB67X2l--13" value="setpassword()" style="shape=process;whiteSpace=wrap;html=1;backgroundOutline=1;" vertex="1" parent="1lpvek-rqMGuGwZiFW09-1">
          <mxGeometry x="455.75" y="460" width="120" height="40" as="geometry" />
        </mxCell>
        <mxCell id="zv12Y5qKYpKNrB67X2l--14" value="menu()" style="shape=process;whiteSpace=wrap;html=1;backgroundOutline=1;" vertex="1" parent="1lpvek-rqMGuGwZiFW09-1">
          <mxGeometry x="620.5" y="460" width="120" height="40" as="geometry" />
        </mxCell>
        <mxCell id="zv12Y5qKYpKNrB67X2l--15" value="Display &quot;Your answer is&lt;br&gt;&amp;nbsp;incorrect. Please try again&quot;" style="shape=parallelogram;perimeter=parallelogramPerimeter;whiteSpace=wrap;html=1;fixedSize=1;" vertex="1" parent="1lpvek-rqMGuGwZiFW09-1">
          <mxGeometry x="160" y="210" width="181" height="60" as="geometry" />
        </mxCell>
        <mxCell id="zv12Y5qKYpKNrB67X2l--18" value="" style="edgeStyle=orthogonalEdgeStyle;rounded=0;orthogonalLoop=1;jettySize=auto;html=1;" edge="1" parent="1lpvek-rqMGuGwZiFW09-1" source="zv12Y5qKYpKNrB67X2l--17" target="zv12Y5qKYpKNrB67X2l--2">
          <mxGeometry relative="1" as="geometry" />
        </mxCell>
        <mxCell id="zv12Y5qKYpKNrB67X2l--17" value="A" style="ellipse;whiteSpace=wrap;html=1;aspect=fixed;align=center;" vertex="1" parent="1lpvek-rqMGuGwZiFW09-1">
          <mxGeometry x="332" y="40" width="50" height="50" as="geometry" />
        </mxCell>
        <mxCell id="Hy4lpjPg-om_MJYH0gYS-3" value="" style="edgeStyle=orthogonalEdgeStyle;rounded=0;orthogonalLoop=1;jettySize=auto;html=1;" edge="1" parent="1lpvek-rqMGuGwZiFW09-1" source="Hy4lpjPg-om_MJYH0gYS-5" target="Hy4lpjPg-om_MJYH0gYS-7">
          <mxGeometry relative="1" as="geometry" />
        </mxCell>
        <mxCell id="Hy4lpjPg-om_MJYH0gYS-4" value="" style="edgeStyle=orthogonalEdgeStyle;rounded=0;orthogonalLoop=1;jettySize=auto;html=1;" edge="1" parent="1lpvek-rqMGuGwZiFW09-1" source="Hy4lpjPg-om_MJYH0gYS-5" target="Hy4lpjPg-om_MJYH0gYS-21">
          <mxGeometry relative="1" as="geometry">
            <mxPoint x="110" y="1010" as="targetPoint" />
            <Array as="points">
              <mxPoint x="150" y="600" />
            </Array>
          </mxGeometry>
        </mxCell>
        <mxCell id="Hy4lpjPg-om_MJYH0gYS-5" value="else if(question==3)" style="rhombus;whiteSpace=wrap;html=1;" vertex="1" parent="1lpvek-rqMGuGwZiFW09-1">
          <mxGeometry x="270.5" y="560" width="173" height="80" as="geometry" />
        </mxCell>
        <mxCell id="Hy4lpjPg-om_MJYH0gYS-6" value="" style="edgeStyle=orthogonalEdgeStyle;rounded=0;orthogonalLoop=1;jettySize=auto;html=1;" edge="1" parent="1lpvek-rqMGuGwZiFW09-1" source="Hy4lpjPg-om_MJYH0gYS-7" target="Hy4lpjPg-om_MJYH0gYS-10">
          <mxGeometry relative="1" as="geometry" />
        </mxCell>
        <mxCell id="Hy4lpjPg-om_MJYH0gYS-7" value="Display question3&lt;br&gt;Display &quot;Answer : &quot;&lt;br&gt;Input holdans" style="shape=parallelogram;perimeter=parallelogramPerimeter;whiteSpace=wrap;html=1;fixedSize=1;" vertex="1" parent="1lpvek-rqMGuGwZiFW09-1">
          <mxGeometry x="481" y="570" width="159" height="60" as="geometry" />
        </mxCell>
        <mxCell id="Hy4lpjPg-om_MJYH0gYS-8" value="" style="edgeStyle=orthogonalEdgeStyle;rounded=0;orthogonalLoop=1;jettySize=auto;html=1;" edge="1" parent="1lpvek-rqMGuGwZiFW09-1" source="Hy4lpjPg-om_MJYH0gYS-10" target="Hy4lpjPg-om_MJYH0gYS-12">
          <mxGeometry relative="1" as="geometry" />
        </mxCell>
        <mxCell id="Hy4lpjPg-om_MJYH0gYS-9" value="" style="edgeStyle=orthogonalEdgeStyle;rounded=0;orthogonalLoop=1;jettySize=auto;html=1;" edge="1" parent="1lpvek-rqMGuGwZiFW09-1" source="Hy4lpjPg-om_MJYH0gYS-10" target="Hy4lpjPg-om_MJYH0gYS-18">
          <mxGeometry relative="1" as="geometry" />
        </mxCell>
        <mxCell id="Hy4lpjPg-om_MJYH0gYS-10" value="&lt;div&gt;&lt;span&gt;		&lt;/span&gt;&amp;nbsp; &amp;nbsp; if(strcmp(holdans,ansq3)==0)&lt;/div&gt;" style="rhombus;whiteSpace=wrap;html=1;" vertex="1" parent="1lpvek-rqMGuGwZiFW09-1">
          <mxGeometry x="455.75" y="650" width="209.5" height="80" as="geometry" />
        </mxCell>
        <mxCell id="Hy4lpjPg-om_MJYH0gYS-11" value="" style="edgeStyle=orthogonalEdgeStyle;rounded=0;orthogonalLoop=1;jettySize=auto;html=1;" edge="1" parent="1lpvek-rqMGuGwZiFW09-1" source="Hy4lpjPg-om_MJYH0gYS-12" target="Hy4lpjPg-om_MJYH0gYS-14">
          <mxGeometry relative="1" as="geometry" />
        </mxCell>
        <mxCell id="Hy4lpjPg-om_MJYH0gYS-12" value="Set gate = 1" style="whiteSpace=wrap;html=1;" vertex="1" parent="1lpvek-rqMGuGwZiFW09-1">
          <mxGeometry x="500.5" y="760" width="120" height="30" as="geometry" />
        </mxCell>
        <mxCell id="Hy4lpjPg-om_MJYH0gYS-13" value="" style="edgeStyle=orthogonalEdgeStyle;rounded=0;orthogonalLoop=1;jettySize=auto;html=1;" edge="1" parent="1lpvek-rqMGuGwZiFW09-1" source="Hy4lpjPg-om_MJYH0gYS-14" target="Hy4lpjPg-om_MJYH0gYS-16">
          <mxGeometry relative="1" as="geometry" />
        </mxCell>
        <mxCell id="Hy4lpjPg-om_MJYH0gYS-14" value="&lt;div&gt;&lt;span&gt;		&lt;/span&gt;&amp;nbsp; &amp;nbsp; &lt;span&gt;	&lt;/span&gt;Display &quot;=========================================== &quot;&lt;/div&gt;&lt;div&gt;Display &quot; [SECUREBOX] Setup Your New Password&quot;&lt;/div&gt;&lt;div&gt;&lt;span&gt;				&lt;/span&gt;Display &quot;===========================================&quot;&lt;/div&gt;" style="shape=parallelogram;perimeter=parallelogramPerimeter;whiteSpace=wrap;html=1;fixedSize=1;" vertex="1" parent="1lpvek-rqMGuGwZiFW09-1">
          <mxGeometry x="240.5" y="820" width="509.5" height="60" as="geometry" />
        </mxCell>
        <mxCell id="Hy4lpjPg-om_MJYH0gYS-15" value="" style="edgeStyle=orthogonalEdgeStyle;rounded=0;orthogonalLoop=1;jettySize=auto;html=1;" edge="1" parent="1lpvek-rqMGuGwZiFW09-1" source="Hy4lpjPg-om_MJYH0gYS-16" target="Hy4lpjPg-om_MJYH0gYS-17">
          <mxGeometry relative="1" as="geometry" />
        </mxCell>
        <mxCell id="Hy4lpjPg-om_MJYH0gYS-16" value="setpassword()" style="shape=process;whiteSpace=wrap;html=1;backgroundOutline=1;" vertex="1" parent="1lpvek-rqMGuGwZiFW09-1">
          <mxGeometry x="455.75" y="910" width="120" height="40" as="geometry" />
        </mxCell>
        <mxCell id="Hy4lpjPg-om_MJYH0gYS-17" value="menu()" style="shape=process;whiteSpace=wrap;html=1;backgroundOutline=1;" vertex="1" parent="1lpvek-rqMGuGwZiFW09-1">
          <mxGeometry x="620.5" y="910" width="120" height="40" as="geometry" />
        </mxCell>
        <mxCell id="Hy4lpjPg-om_MJYH0gYS-18" value="Display &quot;Your answer is&lt;br&gt;&amp;nbsp;incorrect. Please try again&quot;" style="shape=parallelogram;perimeter=parallelogramPerimeter;whiteSpace=wrap;html=1;fixedSize=1;" vertex="1" parent="1lpvek-rqMGuGwZiFW09-1">
          <mxGeometry x="160" y="660" width="181" height="60" as="geometry" />
        </mxCell>
        <mxCell id="Hy4lpjPg-om_MJYH0gYS-31" value="" style="edgeStyle=orthogonalEdgeStyle;rounded=0;orthogonalLoop=1;jettySize=auto;html=1;" edge="1" parent="1lpvek-rqMGuGwZiFW09-1" source="Hy4lpjPg-om_MJYH0gYS-21" target="Hy4lpjPg-om_MJYH0gYS-30">
          <mxGeometry relative="1" as="geometry">
            <Array as="points">
              <mxPoint x="155" y="1000" />
            </Array>
          </mxGeometry>
        </mxCell>
        <mxCell id="Hy4lpjPg-om_MJYH0gYS-21" value="Display &quot;Question Number &lt;br&gt;is not valid. Try again!&quot;" style="shape=parallelogram;perimeter=parallelogramPerimeter;whiteSpace=wrap;html=1;fixedSize=1;align=center;" vertex="1" parent="1lpvek-rqMGuGwZiFW09-1">
          <mxGeometry x="50" y="920" width="210" height="60" as="geometry" />
        </mxCell>
        <mxCell id="Hy4lpjPg-om_MJYH0gYS-22" value="FALSE" style="text;html=1;strokeColor=none;fillColor=none;align=center;verticalAlign=middle;whiteSpace=wrap;rounded=0;" vertex="1" parent="1lpvek-rqMGuGwZiFW09-1">
          <mxGeometry x="220" y="130" width="40" height="20" as="geometry" />
        </mxCell>
        <mxCell id="Hy4lpjPg-om_MJYH0gYS-23" value="FALSE" style="text;html=1;strokeColor=none;fillColor=none;align=center;verticalAlign=middle;whiteSpace=wrap;rounded=0;" vertex="1" parent="1lpvek-rqMGuGwZiFW09-1">
          <mxGeometry x="230.5" y="580" width="40" height="20" as="geometry" />
        </mxCell>
        <mxCell id="Hy4lpjPg-om_MJYH0gYS-24" value="TRUE" style="text;html=1;strokeColor=none;fillColor=none;align=center;verticalAlign=middle;whiteSpace=wrap;rounded=0;" vertex="1" parent="1lpvek-rqMGuGwZiFW09-1">
          <mxGeometry x="441" y="130" width="40" height="20" as="geometry" />
        </mxCell>
        <mxCell id="Hy4lpjPg-om_MJYH0gYS-25" value="TRUE" style="text;html=1;strokeColor=none;fillColor=none;align=center;verticalAlign=middle;whiteSpace=wrap;rounded=0;" vertex="1" parent="1lpvek-rqMGuGwZiFW09-1">
          <mxGeometry x="441" y="570" width="40" height="20" as="geometry" />
        </mxCell>
        <mxCell id="Hy4lpjPg-om_MJYH0gYS-26" value="TRUE" style="text;html=1;strokeColor=none;fillColor=none;align=center;verticalAlign=middle;whiteSpace=wrap;rounded=0;" vertex="1" parent="1lpvek-rqMGuGwZiFW09-1">
          <mxGeometry x="570" y="290" width="40" height="20" as="geometry" />
        </mxCell>
        <mxCell id="Hy4lpjPg-om_MJYH0gYS-27" value="FALSE" style="text;html=1;strokeColor=none;fillColor=none;align=center;verticalAlign=middle;whiteSpace=wrap;rounded=0;" vertex="1" parent="1lpvek-rqMGuGwZiFW09-1">
          <mxGeometry x="382" y="220" width="40" height="20" as="geometry" />
        </mxCell>
        <mxCell id="Hy4lpjPg-om_MJYH0gYS-28" value="TRUE" style="text;html=1;strokeColor=none;fillColor=none;align=center;verticalAlign=middle;whiteSpace=wrap;rounded=0;" vertex="1" parent="1lpvek-rqMGuGwZiFW09-1">
          <mxGeometry x="580.5" y="730" width="40" height="20" as="geometry" />
        </mxCell>
        <mxCell id="Hy4lpjPg-om_MJYH0gYS-29" value="FALSE" style="text;html=1;strokeColor=none;fillColor=none;align=center;verticalAlign=middle;whiteSpace=wrap;rounded=0;" vertex="1" parent="1lpvek-rqMGuGwZiFW09-1">
          <mxGeometry x="392" y="670" width="40" height="20" as="geometry" />
        </mxCell>
        <mxCell id="Hy4lpjPg-om_MJYH0gYS-33" value="" style="edgeStyle=orthogonalEdgeStyle;rounded=0;orthogonalLoop=1;jettySize=auto;html=1;" edge="1" parent="1lpvek-rqMGuGwZiFW09-1" source="Hy4lpjPg-om_MJYH0gYS-30" target="Hy4lpjPg-om_MJYH0gYS-32">
          <mxGeometry relative="1" as="geometry" />
        </mxCell>
        <mxCell id="94xBAPfDWnbBy5AKZPtW-1" value="" style="edgeStyle=orthogonalEdgeStyle;rounded=0;orthogonalLoop=1;jettySize=auto;html=1;entryX=0;entryY=0.5;entryDx=0;entryDy=0;" edge="1" parent="1lpvek-rqMGuGwZiFW09-1" source="Hy4lpjPg-om_MJYH0gYS-30" target="94xBAPfDWnbBy5AKZPtW-0">
          <mxGeometry relative="1" as="geometry">
            <Array as="points">
              <mxPoint x="373" y="1065" />
            </Array>
          </mxGeometry>
        </mxCell>
        <mxCell id="Hy4lpjPg-om_MJYH0gYS-30" value="while(gate==0)" style="rhombus;whiteSpace=wrap;html=1;" vertex="1" parent="1lpvek-rqMGuGwZiFW09-1">
          <mxGeometry x="314" y="960" width="118" height="80" as="geometry" />
        </mxCell>
        <mxCell id="Hy4lpjPg-om_MJYH0gYS-32" value="B" style="ellipse;whiteSpace=wrap;html=1;aspect=fixed;align=center;" vertex="1" parent="1lpvek-rqMGuGwZiFW09-1">
          <mxGeometry x="500.5" y="980" width="40" height="40" as="geometry" />
        </mxCell>
        <mxCell id="Hy4lpjPg-om_MJYH0gYS-34" value="TRUE" style="text;html=1;strokeColor=none;fillColor=none;align=center;verticalAlign=middle;whiteSpace=wrap;rounded=0;" vertex="1" parent="1lpvek-rqMGuGwZiFW09-1">
          <mxGeometry x="450" y="980" width="40" height="20" as="geometry" />
        </mxCell>
        <mxCell id="94xBAPfDWnbBy5AKZPtW-0" value="return" style="ellipse;whiteSpace=wrap;html=1;" vertex="1" parent="1lpvek-rqMGuGwZiFW09-1">
          <mxGeometry x="450" y="1050" width="69" height="30" as="geometry" />
        </mxCell>
        <mxCell id="94xBAPfDWnbBy5AKZPtW-3" value="FALSE" style="text;html=1;strokeColor=none;fillColor=none;align=center;verticalAlign=middle;whiteSpace=wrap;rounded=0;" vertex="1" parent="1lpvek-rqMGuGwZiFW09-1">
          <mxGeometry x="392" y="1040" width="40" height="20" as="geometry" />
        </mxCell>
      </root>
    </mxGraphModel>
  </diagram>
  <diagram id="mnSjL5W2NCypqQWZajN_" name="Page-9">
    <mxGraphModel dx="1243" dy="697" grid="1" gridSize="10" guides="1" tooltips="1" connect="1" arrows="1" fold="1" page="1" pageScale="1" pageWidth="850" pageHeight="1100" math="0" shadow="0">
      <root>
        <mxCell id="9dTkXGLgIlrWydcIF4Uy-0" />
        <mxCell id="9dTkXGLgIlrWydcIF4Uy-1" parent="9dTkXGLgIlrWydcIF4Uy-0" />
        <mxCell id="_x4GM5U_ngQ5mXv6BZ-L-41" value="" style="edgeStyle=orthogonalEdgeStyle;rounded=0;orthogonalLoop=1;jettySize=auto;html=1;" edge="1" parent="9dTkXGLgIlrWydcIF4Uy-1" source="_x4GM5U_ngQ5mXv6BZ-L-1" target="_x4GM5U_ngQ5mXv6BZ-L-40">
          <mxGeometry relative="1" as="geometry" />
        </mxCell>
        <mxCell id="_x4GM5U_ngQ5mXv6BZ-L-1" value="void setpassword()" style="ellipse;whiteSpace=wrap;html=1;" vertex="1" parent="9dTkXGLgIlrWydcIF4Uy-1">
          <mxGeometry x="354" y="50" width="120" height="40" as="geometry" />
        </mxCell>
        <mxCell id="_x4GM5U_ngQ5mXv6BZ-L-43" value="" style="edgeStyle=orthogonalEdgeStyle;rounded=0;orthogonalLoop=1;jettySize=auto;html=1;" edge="1" parent="9dTkXGLgIlrWydcIF4Uy-1" source="_x4GM5U_ngQ5mXv6BZ-L-40" target="_x4GM5U_ngQ5mXv6BZ-L-42">
          <mxGeometry relative="1" as="geometry" />
        </mxCell>
        <mxCell id="_x4GM5U_ngQ5mXv6BZ-L-40" value="Display &quot;Set your password&quot;&lt;br&gt;Input password" style="shape=parallelogram;perimeter=parallelogramPerimeter;whiteSpace=wrap;html=1;fixedSize=1;" vertex="1" parent="9dTkXGLgIlrWydcIF4Uy-1">
          <mxGeometry x="306" y="120" width="216" height="40" as="geometry" />
        </mxCell>
        <mxCell id="_x4GM5U_ngQ5mXv6BZ-L-45" value="" style="edgeStyle=orthogonalEdgeStyle;rounded=0;orthogonalLoop=1;jettySize=auto;html=1;" edge="1" parent="9dTkXGLgIlrWydcIF4Uy-1" source="_x4GM5U_ngQ5mXv6BZ-L-42" target="_x4GM5U_ngQ5mXv6BZ-L-44">
          <mxGeometry relative="1" as="geometry" />
        </mxCell>
        <mxCell id="_x4GM5U_ngQ5mXv6BZ-L-47" value="" style="edgeStyle=orthogonalEdgeStyle;rounded=0;orthogonalLoop=1;jettySize=auto;html=1;" edge="1" parent="9dTkXGLgIlrWydcIF4Uy-1" source="_x4GM5U_ngQ5mXv6BZ-L-42" target="_x4GM5U_ngQ5mXv6BZ-L-46">
          <mxGeometry relative="1" as="geometry" />
        </mxCell>
        <mxCell id="_x4GM5U_ngQ5mXv6BZ-L-42" value="while(strlen(password)&amp;lt;7)" style="rhombus;whiteSpace=wrap;html=1;" vertex="1" parent="9dTkXGLgIlrWydcIF4Uy-1">
          <mxGeometry x="296" y="180" width="236" height="80" as="geometry" />
        </mxCell>
        <mxCell id="_x4GM5U_ngQ5mXv6BZ-L-51" value="" style="edgeStyle=orthogonalEdgeStyle;rounded=0;orthogonalLoop=1;jettySize=auto;html=1;entryX=0;entryY=0.5;entryDx=0;entryDy=0;" edge="1" parent="9dTkXGLgIlrWydcIF4Uy-1" source="_x4GM5U_ngQ5mXv6BZ-L-44" target="_x4GM5U_ngQ5mXv6BZ-L-42">
          <mxGeometry relative="1" as="geometry">
            <mxPoint x="695" y="60" as="targetPoint" />
            <Array as="points">
              <mxPoint x="695" y="30" />
              <mxPoint x="180" y="30" />
              <mxPoint x="180" y="220" />
            </Array>
          </mxGeometry>
        </mxCell>
        <mxCell id="_x4GM5U_ngQ5mXv6BZ-L-44" value="Display &quot;Your password is &lt;br&gt;too short, please insert at least 7 character/number to proceed.&quot;&lt;br&gt;&lt;br&gt;Display &quot;Enter your password:&quot;&lt;br&gt;Input password" style="shape=parallelogram;perimeter=parallelogramPerimeter;whiteSpace=wrap;html=1;fixedSize=1;" vertex="1" parent="9dTkXGLgIlrWydcIF4Uy-1">
          <mxGeometry x="590" y="165" width="210" height="110" as="geometry" />
        </mxCell>
        <mxCell id="_x4GM5U_ngQ5mXv6BZ-L-53" value="" style="edgeStyle=orthogonalEdgeStyle;rounded=0;orthogonalLoop=1;jettySize=auto;html=1;" edge="1" parent="9dTkXGLgIlrWydcIF4Uy-1" source="_x4GM5U_ngQ5mXv6BZ-L-46" target="_x4GM5U_ngQ5mXv6BZ-L-52">
          <mxGeometry relative="1" as="geometry" />
        </mxCell>
        <mxCell id="_x4GM5U_ngQ5mXv6BZ-L-46" value="Display &quot;Re-enter your password&quot;&lt;br&gt;Input holdpassword" style="shape=parallelogram;perimeter=parallelogramPerimeter;whiteSpace=wrap;html=1;fixedSize=1;" vertex="1" parent="9dTkXGLgIlrWydcIF4Uy-1">
          <mxGeometry x="297" y="310" width="234" height="60" as="geometry" />
        </mxCell>
        <mxCell id="_x4GM5U_ngQ5mXv6BZ-L-48" value="TRUE" style="text;html=1;strokeColor=none;fillColor=none;align=center;verticalAlign=middle;whiteSpace=wrap;rounded=0;" vertex="1" parent="9dTkXGLgIlrWydcIF4Uy-1">
          <mxGeometry x="540" y="200" width="40" height="20" as="geometry" />
        </mxCell>
        <mxCell id="_x4GM5U_ngQ5mXv6BZ-L-49" value="FALSE" style="text;html=1;strokeColor=none;fillColor=none;align=center;verticalAlign=middle;whiteSpace=wrap;rounded=0;" vertex="1" parent="9dTkXGLgIlrWydcIF4Uy-1">
          <mxGeometry x="425" y="280" width="40" height="20" as="geometry" />
        </mxCell>
        <mxCell id="_x4GM5U_ngQ5mXv6BZ-L-55" value="" style="edgeStyle=orthogonalEdgeStyle;rounded=0;orthogonalLoop=1;jettySize=auto;html=1;" edge="1" parent="9dTkXGLgIlrWydcIF4Uy-1" source="_x4GM5U_ngQ5mXv6BZ-L-52" target="_x4GM5U_ngQ5mXv6BZ-L-54">
          <mxGeometry relative="1" as="geometry" />
        </mxCell>
        <mxCell id="_x4GM5U_ngQ5mXv6BZ-L-58" value="" style="edgeStyle=orthogonalEdgeStyle;rounded=0;orthogonalLoop=1;jettySize=auto;html=1;" edge="1" parent="9dTkXGLgIlrWydcIF4Uy-1" source="_x4GM5U_ngQ5mXv6BZ-L-52" target="_x4GM5U_ngQ5mXv6BZ-L-57">
          <mxGeometry relative="1" as="geometry" />
        </mxCell>
        <mxCell id="_x4GM5U_ngQ5mXv6BZ-L-52" value="&lt;div&gt;&lt;span&gt;	&lt;/span&gt;&amp;nbsp; if(strcmp(password,holdpassword) != 0)&lt;/div&gt;" style="rhombus;whiteSpace=wrap;html=1;" vertex="1" parent="9dTkXGLgIlrWydcIF4Uy-1">
          <mxGeometry x="261" y="410" width="306" height="80" as="geometry" />
        </mxCell>
        <mxCell id="_x4GM5U_ngQ5mXv6BZ-L-54" value="Display &quot;Your&lt;br&gt;&amp;nbsp;password is &lt;br&gt;incorrect, please&lt;br&gt;&amp;nbsp;retype again&quot;" style="shape=parallelogram;perimeter=parallelogramPerimeter;whiteSpace=wrap;html=1;fixedSize=1;" vertex="1" parent="9dTkXGLgIlrWydcIF4Uy-1">
          <mxGeometry x="600" y="420" width="140" height="60" as="geometry" />
        </mxCell>
        <mxCell id="_x4GM5U_ngQ5mXv6BZ-L-56" value="TRUE" style="text;html=1;strokeColor=none;fillColor=none;align=center;verticalAlign=middle;whiteSpace=wrap;rounded=0;" vertex="1" parent="9dTkXGLgIlrWydcIF4Uy-1">
          <mxGeometry x="560" y="420" width="40" height="20" as="geometry" />
        </mxCell>
        <mxCell id="_x4GM5U_ngQ5mXv6BZ-L-61" value="" style="edgeStyle=orthogonalEdgeStyle;rounded=0;orthogonalLoop=1;jettySize=auto;html=1;entryX=0;entryY=0.5;entryDx=0;entryDy=0;" edge="1" parent="9dTkXGLgIlrWydcIF4Uy-1" source="_x4GM5U_ngQ5mXv6BZ-L-57" target="_x4GM5U_ngQ5mXv6BZ-L-40">
          <mxGeometry relative="1" as="geometry">
            <mxPoint x="670" y="565" as="targetPoint" />
            <Array as="points">
              <mxPoint x="100" y="565" />
              <mxPoint x="100" y="140" />
            </Array>
          </mxGeometry>
        </mxCell>
        <mxCell id="_x4GM5U_ngQ5mXv6BZ-L-64" value="" style="edgeStyle=orthogonalEdgeStyle;rounded=0;orthogonalLoop=1;jettySize=auto;html=1;" edge="1" parent="9dTkXGLgIlrWydcIF4Uy-1" source="_x4GM5U_ngQ5mXv6BZ-L-57" target="_x4GM5U_ngQ5mXv6BZ-L-63">
          <mxGeometry relative="1" as="geometry" />
        </mxCell>
        <mxCell id="_x4GM5U_ngQ5mXv6BZ-L-57" value="&lt;div&gt;&amp;nbsp; while(strcmp&lt;/div&gt;&lt;div&gt;(password,holdpassword) != 0)&lt;/div&gt;&lt;div&gt;&lt;br&gt;&lt;/div&gt;" style="rhombus;whiteSpace=wrap;html=1;" vertex="1" parent="9dTkXGLgIlrWydcIF4Uy-1">
          <mxGeometry x="296" y="530" width="236" height="70" as="geometry" />
        </mxCell>
        <mxCell id="_x4GM5U_ngQ5mXv6BZ-L-59" value="FALSE" style="text;html=1;strokeColor=none;fillColor=none;align=center;verticalAlign=middle;whiteSpace=wrap;rounded=0;" vertex="1" parent="9dTkXGLgIlrWydcIF4Uy-1">
          <mxGeometry x="420" y="510" width="40" height="20" as="geometry" />
        </mxCell>
        <mxCell id="_x4GM5U_ngQ5mXv6BZ-L-62" value="TRUE" style="text;html=1;strokeColor=none;fillColor=none;align=center;verticalAlign=middle;whiteSpace=wrap;rounded=0;" vertex="1" parent="9dTkXGLgIlrWydcIF4Uy-1">
          <mxGeometry x="221" y="540" width="40" height="20" as="geometry" />
        </mxCell>
        <mxCell id="_x4GM5U_ngQ5mXv6BZ-L-63" value="return" style="ellipse;whiteSpace=wrap;html=1;" vertex="1" parent="9dTkXGLgIlrWydcIF4Uy-1">
          <mxGeometry x="354" y="640" width="120" height="35" as="geometry" />
        </mxCell>
        <mxCell id="_x4GM5U_ngQ5mXv6BZ-L-65" value="FALSE" style="text;html=1;strokeColor=none;fillColor=none;align=center;verticalAlign=middle;whiteSpace=wrap;rounded=0;" vertex="1" parent="9dTkXGLgIlrWydcIF4Uy-1">
          <mxGeometry x="420" y="610" width="40" height="20" as="geometry" />
        </mxCell>
      </root>
    </mxGraphModel>
  </diagram>
</mxfile>
